<?xml version="1.0" encoding="UTF-8"?>
<!DOCTYPE svg  PUBLIC '-//W3C//DTD SVG 1.1//EN'  'http://www.w3.org/Graphics/SVG/1.1/DTD/svg11.dtd'>
<svg version="1.1" xmlns="http://www.w3.org/2000/svg">
<defs>
<font id="Stolzl-Regular" horiz-adv-x="673">
<font-face font-family="Stolzl" font-weight="400" ascent="800" bbox="-59 -262 1087 1022" cap-height="700" descent="-200" panose-1="0 0 5 0 0 0 0 0 0 0" underline-position="-100" underline-thickness="50" unicode-range="U+0020-0491" units-per-em="1000" x-height="550"/>
<missing-glyph/>
<glyph glyph-name="space" horiz-adv-x="300" unicode=" "/>
<glyph d="M212 700v-252l-7 -228h-99l-8 228v252h114zM155 130q47 0 67 -39q7 -15 7 -32q0 -45 -40 -64q-16 -7 -34 -7q-47 0 -66 39q-7 15 -7 32q0 46 40 64q16 7 33 7z" glyph-name="exclam" horiz-adv-x="310" unicode="!"/>
<glyph d="M95 377l-13 204v119h113v-119l-14 -204h-86zM286 377l-13 204v119h113v-119l-14 -204h-86z" glyph-name="quotedbl" horiz-adv-x="467" unicode='"'/>
<glyph d="M825 476h-149l-45 -168h150l-24 -92h-150l-57 -216h-104l57 216h-167l-57 -216h-104l57 216h-150l24 92h150l44 168h-150l25 92h149l54 202h104l-53 -202h166l54 202h104l-53 -202h150zM527 308l44 168h-166l-45 -168h167z" glyph-name="numbersign" horiz-adv-x="931" unicode="#"/>
<glyph d="M603 201q0 -128 -118 -183q-48 -22 -105 -28v-114h-112v118q-159 27 -211 161q-11 30 -16 62h114q26 -101 129 -119q26 -4 57 -4q120 0 143 72q5 14 5 30q0 46 -47 67q-30 14 -140 38q-141 31 -192 77q-50 47 -50 122q0 119 106 176q46 25 104 33v115h113v-117 q152 -23 199 -151q8 -22 12 -46h-114q-35 95 -162 96q-113 0 -139 -68q-6 -17 -6 -35q0 -40 44 -59q31 -15 112 -32q158 -35 212 -76q62 -47 62 -135z" glyph-name="dollar" horiz-adv-x="644" unicode="$"/>
<glyph d="M271 291q-116 0 -164 92q-25 50 -25 118q0 137 93 188q42 23 96 23q113 0 161 -89q28 -51 28 -122q0 -137 -93 -187q-42 -23 -96 -23zM797 700l-400 -700h-109l400 700h109zM271 379q89 2 90 122q-1 121 -90 122q-89 -2 -90 -122q1 -121 90 -122zM815 409q113 0 162 -89 q27 -51 27 -121q0 -136 -92 -188q-43 -23 -97 -23q-114 0 -162 91q-27 50 -27 120q0 138 94 188q42 22 95 22zM815 321q-90 -2 -91 -122q1 -121 91 -122q89 2 90 122q-1 121 -90 122z" glyph-name="percent" horiz-adv-x="1085" unicode="%"/>
<glyph d="M680 0h-143q-7 8 -21 22q-22 22 -31 32q-89 -66 -204 -66q-139 0 -203 79q-37 48 -37 115q0 82 72 141q28 23 74 51q-70 87 -74 151v11q0 102 87 149q49 27 110 27q101 0 154 -66q35 -44 35 -104q0 -86 -89 -154q-26 -18 -63 -41q43 -47 131 -138q25 49 35 111h115 q-13 -111 -71 -192q21 -22 67 -70q37 -38 56 -58zM309 608q-63 0 -78 -51q-4 -14 -4 -28q1 -42 50 -104q84 52 100 82q8 16 8 34q0 49 -46 63q-14 4 -30 4zM288 92q71 1 123 38q-123 129 -155 164q-74 -44 -91 -72q-10 -17 -10 -37q0 -63 70 -85q28 -8 63 -8z" glyph-name="ampersand" horiz-adv-x="721" unicode="&amp;"/>
<glyph d="M195 700v-119l-14 -204h-86l-13 204v119h113z" glyph-name="quotesingle" horiz-adv-x="276" unicode="'"/>
<glyph d="M331 731q-103 -199 -126 -339q-10 -63 -10 -132q0 -164 68 -328q27 -63 68 -143l-86 -51q-163 251 -163 522q1 272 163 522z" glyph-name="parenleft" horiz-adv-x="413" unicode="("/>
<glyph d="M82 731l86 51q163 -251 163 -522q-1 -272 -163 -522l-86 51q103 199 126 339q10 63 10 132q0 164 -68 328q-27 63 -68 143z" glyph-name="parenright" horiz-adv-x="413" unicode=")"/>
<glyph d="M483 541l-133 -56l92 -112l-67 -54l-94 115l-93 -115l-66 54l91 112l-131 56l33 78l125 -52v133h83v-133l125 52z" glyph-name="asterisk" horiz-adv-x="564" unicode="*"/>
<glyph d="M389 545v-194h194v-108h-194v-194h-113v194h-194v108h194v194h113z" glyph-name="plus" horiz-adv-x="664" unicode="+"/>
<glyph d="M253 54q2 -34 -59 -154q-16 -32 -37 -72h-75l71 164q-45 18 -47 65q0 48 42 66q15 6 31 6q55 0 70 -46q4 -14 4 -29z" glyph-name="comma" horiz-adv-x="335" unicode=","/>
<glyph d="M412 353v-108h-330v108h330z" glyph-name="hyphen" horiz-adv-x="493" unicode="-"/>
<glyph d="M155 129q48 0 67 -38q7 -15 7 -32q0 -45 -40 -64q-16 -7 -34 -7q-47 0 -66 39q-7 15 -7 32q0 46 41 64q16 6 32 6z" glyph-name="period" horiz-adv-x="310" unicode="."/>
<glyph d="M335 770l-203 -770h-114l203 770h114z" glyph-name="slash" horiz-adv-x="353" unicode="/"/>
<glyph d="M343 712q166 0 242 -137q50 -91 50 -225q0 -215 -120 -307q-71 -55 -172 -55q-165 0 -241 136q-50 91 -50 226q0 216 121 309q70 53 170 53zM343 96q177 2 178 254q-1 253 -178 254q-176 -2 -177 -254q1 -253 177 -254z" glyph-name="zero" horiz-adv-x="687" unicode="0"/>
<glyph d="M252 700h51v-700h-113v568l-159 -65v111z" glyph-name="one" horiz-adv-x="385" unicode="1"/>
<glyph d="M226 108h346v-108h-531v81l203 178q136 119 165 154q32 40 32 80q0 66 -59 95q-32 16 -74 16q-122 -2 -147 -129h-114q15 135 118 198q65 39 148 39q129 0 197 -84q45 -57 45 -130q0 -79 -67 -155q-36 -40 -150 -139l-110 -95z" glyph-name="two" horiz-adv-x="613" unicode="2"/>
<glyph d="M459 368q90 -33 109 -126q4 -21 4 -43q0 -119 -102 -176q-65 -35 -154 -35q-146 0 -222 90q-44 54 -53 131h114q25 -113 160 -114q108 0 136 72q7 19 7 42q-2 99 -133 100h-95v100h75q130 1 131 89q0 69 -66 96q-29 11 -66 11q-112 0 -139 -100q-1 -3 -1 -5h-114 q20 144 144 192q51 20 113 20q125 0 194 -75q49 -54 49 -125q0 -85 -65 -130q-13 -8 -26 -14z" glyph-name="three" horiz-adv-x="613" unicode="3"/>
<glyph d="M606 267v-106h-101v-161h-113v161l-361 -1v107l306 433h168v-433h101zM154 267h238v328h-9z" glyph-name="four" horiz-adv-x="636" unicode="4"/>
<glyph d="M339 466q114 0 182 -77q54 -63 54 -154q0 -125 -94 -195q-70 -52 -167 -52q-131 0 -209 82q-55 58 -64 145h114q17 -85 99 -111q28 -9 59 -9q85 0 125 64q22 35 22 77q0 81 -67 117q-34 19 -78 19q-96 -1 -142 -74h-108l86 402h391v-108h-306l-36 -170q58 44 139 44z" glyph-name="five" horiz-adv-x="615" unicode="5"/>
<glyph d="M340 474q109 0 176 -73q58 -63 58 -158q0 -126 -94 -199q-73 -56 -173 -56q-125 0 -201 82q-65 70 -65 174q0 95 75 214q35 54 176 242h133l-194 -254q53 28 109 28zM307 96q86 0 129 63q24 36 24 84q0 87 -72 125q-36 19 -80 19q-92 0 -132 -66q-21 -35 -21 -79 q0 -85 69 -125q37 -21 83 -21z" glyph-name="six" horiz-adv-x="615" unicode="6"/>
<glyph d="M31 700h488v-83l-304 -617h-128l297 592h-353v108z" glyph-name="seven" horiz-adv-x="550" unicode="7"/>
<glyph d="M451 367q89 -32 111 -123q6 -24 6 -50q0 -109 -99 -166q-69 -40 -164 -40q-139 0 -213 77q-51 54 -51 129q0 103 77 153q19 12 40 20q-76 33 -92 114q-3 17 -3 35q0 99 88 155q65 41 154 41q123 0 192 -73q49 -52 49 -123q0 -89 -69 -135q-13 -8 -26 -14zM305 605 q-97 0 -122 -64q-7 -18 -7 -39q4 -90 129 -92q125 4 128 92q0 72 -71 95q-26 8 -57 8zM305 95q112 0 142 67q8 20 8 42q-2 107 -150 108q-150 -1 -151 -108q0 -79 87 -101q29 -8 64 -8z" glyph-name="eight" horiz-adv-x="609" unicode="8"/>
<glyph d="M308 712q125 0 201 -82q65 -70 65 -174q0 -95 -75 -214q-35 -54 -176 -242h-133l194 254q-53 -28 -109 -28q-109 0 -176 73q-58 63 -58 158q0 126 94 199q73 56 173 56zM307 313q92 0 132 66q21 35 21 79q0 85 -69 125q-37 21 -83 21q-86 0 -129 -63q-24 -36 -24 -84 q0 -87 72 -125q36 -19 80 -19z" glyph-name="nine" horiz-adv-x="615" unicode="9"/>
<glyph d="M155 512q48 0 67 -38q7 -15 7 -32q0 -45 -40 -64q-16 -7 -34 -7q-47 0 -66 39q-7 15 -7 32q0 46 41 64q16 6 32 6zM155 129q48 0 67 -38q7 -15 7 -32q0 -45 -40 -64q-16 -7 -34 -7q-47 0 -66 39q-7 15 -7 32q0 46 41 64q16 6 32 6z" glyph-name="colon" horiz-adv-x="310" unicode=":"/>
<glyph d="M180 371q-47 0 -67 39q-7 15 -7 32q0 45 41 63q16 7 33 7q48 0 66 -39q7 -15 7 -31q0 -46 -40 -64q-16 -7 -33 -7zM253 54q2 -34 -59 -154q-16 -32 -37 -72h-75l71 164q-45 18 -47 65q0 48 42 66q15 6 31 6q55 0 70 -46q4 -14 4 -29z" glyph-name="semicolon" horiz-adv-x="335" unicode=";"/>
<glyph d="M583 510v-117l-332 -96l332 -96v-119l-501 177v75z" glyph-name="less" horiz-adv-x="664" unicode="&lt;"/>
<glyph d="M583 458v-104h-501v104h501zM583 251v-103h-501v103h501z" glyph-name="equal" horiz-adv-x="664" unicode="="/>
<glyph d="M82 511l501 -176v-76l-501 -176v118l331 96l-331 95v119z" glyph-name="greater" horiz-adv-x="664" unicode="&gt;"/>
<glyph d="M223 220v52q0 60 44 93q19 15 66 39q61 32 76 56q11 18 11 43q0 72 -70 95q-27 9 -61 9q-121 0 -134 -123v-2h-114q9 146 124 203q56 27 128 27q132 0 198 -80q43 -53 43 -126q0 -87 -72 -139q-24 -17 -64 -38q-49 -26 -59 -51q-5 -12 -5 -27v-31h-111zM279 -12 q-50 0 -69 40q-6 15 -6 31q0 47 43 64q16 6 32 6q50 0 69 -39q7 -15 7 -31q0 -46 -42 -64q-16 -7 -34 -7z" glyph-name="question" horiz-adv-x="575" unicode="?"/>
<glyph d="M580 782q214 0 354 -124q152 -139 153 -372q0 -201 -111 -265q-43 -25 -99 -25q-103 0 -146 74q-9 16 -15 34q-62 -107 -181 -108q-110 0 -175 87q-52 70 -52 168q0 129 83 203q61 53 143 53q112 -2 173 -96v85h100v-318q0 -73 59 -84q9 -2 18 -2q100 2 101 181 q0 241 -161 347q-100 66 -241 66q-196 0 -315 -122q-114 -118 -114 -308q0 -211 136 -327q113 -95 282 -95q111 0 195 40l20 -93q-101 -43 -218 -43q-220 0 -362 133q-146 136 -155 360v25q0 226 140 372q135 139 347 153q21 1 41 1zM556 93q81 0 124 64q26 41 26 94 q0 87 -64 132q-38 27 -86 27q-81 0 -121 -67q-24 -41 -24 -92q0 -90 64 -134q36 -24 81 -24z" glyph-name="at" horiz-adv-x="1139" unicode="@"/>
<glyph d="M597 0l-71 188h-304l-71 -188h-120l271 700h144l271 -700h-120zM263 295h222l-111 293z" glyph-name="A" horiz-adv-x="748" unicode="A"/>
<glyph d="M500 374q100 -30 114 -142q2 -17 2 -34q0 -125 -106 -174q-53 -24 -126 -24h-302v700h298q156 0 199 -104q14 -34 14 -76q-1 -103 -93 -146zM479 502q0 73 -69 86q-20 4 -44 4h-171v-180h172q106 0 112 80v10zM381 108q112 0 120 83q1 8 1 16q0 81 -73 96q-22 5 -49 5 h-185v-200h186z" glyph-name="B" horiz-adv-x="657" unicode="B"/>
<glyph d="M416 -12q-158 0 -261 106q-100 103 -100 256q0 157 105 261q103 101 256 101t254 -104q57 -59 81 -139h-121q-43 94 -141 124q-36 11 -74 11q-119 0 -189 -87q-57 -70 -57 -167q0 -123 84 -196q68 -58 162 -58q117 0 185 86q18 23 30 49h121q-40 -132 -157 -198 q-81 -45 -178 -45z" glyph-name="C" horiz-adv-x="792" unicode="C"/>
<glyph d="M327 700q156 0 259 -102q99 -100 99 -248q0 -153 -105 -253q-103 -97 -253 -97h-245v700h245zM328 108q120 0 190 84q54 66 54 158q0 120 -86 189q-66 53 -158 53h-133v-484h133z" glyph-name="D" horiz-adv-x="737" unicode="D"/>
<glyph d="M539 592h-344v-181h319v-108h-319v-195h344v-108h-457v700h457v-108z" glyph-name="E" horiz-adv-x="580" unicode="E"/>
<glyph d="M539 592h-344v-186h319v-108h-319v-298h-113v700h457v-108z" glyph-name="F" horiz-adv-x="580" unicode="F"/>
<glyph d="M376 372h378v-372h-98v140q-33 -90 -131 -130q-56 -22 -122 -22q-150 0 -250 103q-101 103 -101 258q0 159 106 263q103 100 255 100q156 0 256 -104q55 -57 79 -134h-121q-46 97 -151 122q-31 8 -64 8q-120 0 -191 -88q-55 -71 -55 -169q0 -124 83 -197q66 -57 162 -57 q117 0 183 80q35 44 45 103h-263v96z" glyph-name="G" horiz-adv-x="831" unicode="G"/>
<glyph d="M554 700h113v-700h-113v306h-359v-306h-113v700h113v-286h359v286z" glyph-name="H" horiz-adv-x="748" unicode="H"/>
<glyph d="M82 0v700h113v-700h-113z" glyph-name="I" horiz-adv-x="277" unicode="I"/>
<glyph d="M375 700h114v-474q0 -142 -101 -204q-56 -34 -130 -34q-125 0 -186 88q-41 59 -41 146v41h114v-38q2 -128 114 -129q103 0 115 106q1 14 1 27v471z" glyph-name="J" horiz-adv-x="571" unicode="J"/>
<glyph d="M634 0h-143l-296 334v-334h-113v700h113v-320l283 320h142l-302 -341z" glyph-name="K" horiz-adv-x="665" unicode="K"/>
<glyph d="M195 108h319v-108h-432v700h113v-592z" glyph-name="L" horiz-adv-x="544" unicode="L"/>
<glyph d="M612 700h133v-700h-113v547l-216 -326h-11l-215 326v-547h-113v700h133l201 -302z" glyph-name="M" horiz-adv-x="827" unicode="M"/>
<glyph d="M550 700h113v-700h-134l-350 541l11 -248v-293h-113v700h133l350 -540l-10 247v293z" glyph-name="N" horiz-adv-x="740" unicode="N"/>
<glyph d="M415 712q153 0 257 -103q105 -105 106 -259q-1 -154 -104 -258q-105 -104 -259 -104q-153 0 -257 102q-105 107 -106 260q0 154 104 258q106 103 259 104zM415 604q-117 0 -189 -84q-60 -71 -60 -170q0 -120 84 -194q70 -60 165 -60q116 0 188 84q60 71 60 170 q0 120 -84 194q-69 60 -164 60z" glyph-name="O" horiz-adv-x="829" unicode="O"/>
<glyph d="M369 700q143 0 208 -96q38 -57 38 -134q0 -125 -91 -189q-64 -44 -155 -44h-174v-237h-113v700h287zM365 345q101 0 128 77q7 22 7 47q0 87 -75 114q-27 9 -60 9h-170v-247h170z" glyph-name="P" horiz-adv-x="666" unicode="P"/>
<glyph d="M778 350q-1 -155 -105 -258l-3 -3l108 -142l-87 -65l-109 145q-79 -39 -167 -39q-153 0 -257 102q-105 107 -106 260q0 154 104 258q106 103 259 104q153 0 257 -103q105 -105 106 -259zM166 350q0 -120 84 -194q70 -60 165 -60q116 0 188 84q60 71 60 170q0 120 -84 194 q-69 60 -164 60q-117 0 -189 -84q-60 -71 -60 -170z" glyph-name="Q" horiz-adv-x="829" unicode="Q"/>
<glyph d="M503 0l-200 261h-108v-261h-113v700h289q145 0 206 -99q32 -53 32 -123q0 -135 -109 -189q-31 -15 -67 -22l209 -267h-139zM195 592v-231h164q109 0 131 79q5 18 5 37q0 84 -79 108q-26 7 -57 7h-164z" glyph-name="R" unicode="R"/>
<glyph d="M329 412q158 -35 212 -76q62 -47 62 -135q0 -129 -119 -184q-64 -29 -142 -29q-199 0 -272 139q-21 41 -29 90h114q26 -101 129 -119q26 -4 57 -4q120 0 143 72q5 14 5 30q0 46 -47 67q-30 14 -140 38q-141 31 -192 77q-50 47 -50 122q0 116 103 175q67 37 154 37 q192 0 256 -136q15 -31 21 -66h-114q-35 95 -162 96q-107 0 -137 -64q-8 -18 -8 -39q0 -40 44 -59q31 -15 112 -32z" glyph-name="S" horiz-adv-x="644" unicode="S"/>
<glyph d="M571 700v-108h-214v-592h-113v592h-213v108h540z" glyph-name="T" horiz-adv-x="602" unicode="T"/>
<glyph d="M533 700h115v-421q0 -176 -123 -250q-68 -41 -160 -41q-154 0 -229 104q-54 74 -54 187v421h115v-414q0 -159 121 -185q23 -5 47 -5q131 0 160 120q8 32 8 70v414z" glyph-name="U" horiz-adv-x="725" unicode="U"/>
<glyph d="M536 700h120l-241 -700h-144l-240 700h120l192 -570z" glyph-name="V" horiz-adv-x="687" unicode="V"/>
<glyph d="M857 700h116l-186 -700h-141l-67 253l-68 313h-18l-67 -313l-67 -253h-142l-186 700h116l89 -335l53 -247l53 247l88 335h144l88 -335l54 -248l53 248z" glyph-name="W" horiz-adv-x="1004" unicode="W"/>
<glyph d="M627 0h-134l-165 266l-163 -266h-134l228 361l-218 339h135l155 -250l155 250h134l-220 -346z" glyph-name="X" horiz-adv-x="658" unicode="X"/>
<glyph d="M650 700l-252 -459l-1 -241h-113v239l-253 461h128l182 -334l182 334h127z" glyph-name="Y" horiz-adv-x="681" unicode="Y"/>
<glyph d="M182 108h373v-108h-514v108l372 484h-355v108h496v-108z" glyph-name="Z" horiz-adv-x="596" unicode="Z"/>
<glyph d="M329 770v-108h-134v-804h134v-108h-247v1020h247z" glyph-name="bracketleft" horiz-adv-x="410" unicode="["/>
<glyph d="M196 770l203 -770h-114l-203 770h114z" glyph-name="backslash" horiz-adv-x="481" unicode="\"/>
<glyph d="M82 770h247v-1020h-247v108h133v804h-133v108z" glyph-name="bracketright" horiz-adv-x="410" unicode="]"/>
<glyph d="M300 712l218 -219l-79 -79l-139 138l-139 -138l-79 79z" glyph-name="asciicircum" horiz-adv-x="600" unicode="^"/>
<glyph d="M542 -19v-107h-460v107h460z" glyph-name="underscore" horiz-adv-x="623" unicode="_"/>
<glyph d="M149 839l164 -164l-52 -51l-179 147z" glyph-name="grave" horiz-adv-x="395" unicode="`"/>
<glyph d="M494 550h113v-550h-113v92q-73 -100 -192 -104q-120 0 -193 93q-61 80 -61 194q0 140 88 222q69 65 165 65q120 0 188 -98q3 -5 5 -8v94zM326 96q88 0 136 68q33 48 33 111q0 96 -69 147q-44 32 -100 32q-88 0 -134 -71q-30 -47 -30 -108q0 -100 69 -150q42 -29 95 -29z " glyph-name="a" unicode="a"/>
<glyph d="M372 562q117 0 189 -91q64 -80 64 -196q0 -141 -88 -223q-70 -64 -166 -64q-119 0 -187 96q-3 5 -5 8v-92h-113v770h113v-314q63 100 180 106h13zM347 96q88 0 134 71q30 46 30 108q0 99 -69 149q-42 30 -95 30q-87 0 -136 -69q-33 -47 -33 -110q0 -97 70 -148 q44 -31 99 -31z" glyph-name="b" unicode="b"/>
<glyph d="M333 -12q-130 0 -212 91q-73 81 -73 196q0 131 91 214q81 73 195 73q123 0 203 -81q52 -55 67 -131h-117q-23 76 -100 99q-26 8 -53 8q-94 0 -142 -74q-30 -47 -30 -108q0 -99 70 -150q44 -32 101 -32q87 0 132 64q15 20 22 44h117q-23 -121 -129 -178q-65 -35 -142 -35z " glyph-name="c" horiz-adv-x="642" unicode="c"/>
<glyph d="M501 770h113v-770h-113v92q-74 -100 -193 -104q-120 0 -193 93q-61 80 -61 194q0 140 88 222q69 65 165 65q123 0 192 -103q1 -2 2 -3v314zM332 96q88 0 136 68q33 48 33 111q0 96 -69 147q-44 32 -100 32q-88 0 -134 -71q-30 -47 -30 -108q0 -100 69 -150q42 -29 95 -29 z" glyph-name="d" horiz-adv-x="679" unicode="d"/>
<glyph d="M332 562q139 0 218 -101q67 -89 60 -217h-447q9 -102 92 -140q36 -17 80 -17q98 0 141 70q3 7 6 12h117q-44 -126 -167 -166q-47 -15 -98 -15q-136 0 -218 94q-68 79 -68 192q0 135 92 218q79 70 192 70zM332 464q-96 0 -143 -79q-13 -23 -20 -49h320q-19 85 -92 116 q-31 12 -65 12z" glyph-name="e" horiz-adv-x="654" unicode="e"/>
<glyph d="M353 682q-113 -2 -114 -129v-3h203v-106h-203v-444h-113v444h-102v106h102v8q0 139 99 196q51 28 115 28q70 0 124 -24l-20 -93l-16 5q-39 12 -75 12z" glyph-name="f" horiz-adv-x="482" unicode="f"/>
<glyph d="M494 550h113v-543q0 -149 -101 -221q-68 -48 -165 -48q-135 0 -213 82q-48 51 -61 123h117q23 -85 116 -101q19 -3 38 -3q131 0 152 119q4 21 4 45v94q-65 -97 -180 -103h-12q-120 0 -192 92q-62 79 -62 192q0 136 87 218q70 66 167 66q114 0 181 -91q6 -8 11 -15v94z M326 102q87 0 136 68q33 46 33 108q0 92 -67 143q-45 33 -102 33q-88 0 -134 -70q-30 -46 -30 -106q0 -96 68 -146q42 -30 96 -30z" glyph-name="g" unicode="g"/>
<glyph d="M368 562q123 0 172 -97q26 -50 26 -118v-347h-113v324q-2 129 -121 130q-110 0 -139 -100q-9 -31 -9 -69v-285h-113v770h113v-310q63 101 184 102z" glyph-name="h" horiz-adv-x="626" unicode="h"/>
<glyph d="M122 798q49 0 68 -39q6 -15 6 -30q0 -46 -41 -64q-16 -7 -33 -7q-46 0 -66 39q-7 15 -7 32q0 44 40 62q16 7 33 7zM66 0v550h113v-550h-113z" glyph-name="i" horiz-adv-x="244" unicode="i"/>
<glyph d="M122 798q49 0 68 -39q6 -15 6 -30q0 -46 -41 -64q-16 -7 -33 -7q-46 0 -66 39q-7 15 -7 32q0 44 40 62q16 7 33 7zM66 -250v800h113v-800h-113z" glyph-name="j" horiz-adv-x="244" unicode="j"/>
<glyph d="M589 0h-146l-259 254v-254h-113v770h113v-458l238 238h145l-269 -261z" glyph-name="k" horiz-adv-x="613" unicode="k"/>
<glyph d="M67 0v770h114v-770h-114z" glyph-name="l" horiz-adv-x="244" unicode="l"/>
<glyph d="M706 562q118 0 164 -97q22 -48 22 -112v-353h-113v329q-2 124 -109 125q-93 0 -123 -91q-12 -35 -12 -78l1 -285h-114v329q-2 124 -109 125q-94 0 -123 -92q-11 -35 -11 -77v-285h-113v550h113v-88q61 99 171 100q124 0 168 -109l2 -6q61 114 186 115z" glyph-name="m" horiz-adv-x="953" unicode="m"/>
<glyph d="M363 562q125 0 174 -99q24 -50 24 -116v-347h-113v324q-2 129 -120 130q-111 0 -140 -101q-9 -31 -9 -68v-285h-113v550h113v-91q64 102 184 103z" glyph-name="n" horiz-adv-x="622" unicode="n"/>
<glyph d="M333 562q125 0 208 -87q77 -82 77 -200q0 -131 -92 -214q-81 -73 -193 -73q-125 0 -208 88q-77 82 -77 199q0 130 92 214q81 73 193 73zM333 454q-86 0 -136 -67q-35 -48 -35 -112q0 -96 70 -147q45 -32 101 -32q87 0 136 67q35 48 35 112q0 95 -69 146q-45 33 -102 33z " glyph-name="o" horiz-adv-x="665" unicode="o"/>
<glyph d="M377 562q117 0 189 -91q64 -80 64 -196q0 -141 -88 -223q-70 -64 -166 -64q-119 0 -187 96q-3 5 -5 8v-342h-113v800h113v-94q63 100 180 106h13zM352 96q88 0 134 71q30 46 30 108q0 99 -69 149q-42 30 -95 30q-87 0 -136 -69q-33 -47 -33 -110q0 -97 70 -148 q44 -31 99 -31z" glyph-name="p" horiz-adv-x="678" unicode="p"/>
<glyph d="M494 550h113v-800h-113v342q-63 -97 -177 -104h-15q-120 0 -193 93q-61 80 -61 194q0 140 88 222q69 65 165 65q120 0 188 -98q3 -5 5 -8v94zM326 96q88 0 136 68q33 48 33 111q0 96 -69 147q-44 32 -100 32q-88 0 -134 -71q-30 -47 -30 -108q0 -100 69 -150 q42 -29 95 -29z" glyph-name="q" unicode="q"/>
<glyph d="M362 562q21 0 33 -3v-115q-21 2 -34 2q-121 0 -164 -95q-18 -43 -18 -99v-252h-113v550h113v-109q58 117 183 121z" glyph-name="r" horiz-adv-x="419" unicode="r"/>
<glyph d="M309 -12q-153 0 -227 92q-33 42 -43 97h115q20 -71 102 -85q25 -4 55 -4q104 0 117 51q1 6 1 12q0 33 -45 49q-17 6 -99 26q-141 35 -183 72q-36 34 -36 89q0 104 99 149q57 26 133 26q165 0 221 -112q13 -26 19 -55h-114q-25 66 -128 67q-93 0 -112 -45q-4 -9 -4 -18 q0 -27 37 -41q23 -9 93 -26q137 -32 181 -62q54 -37 54 -106q0 -107 -106 -152q-57 -24 -130 -24z" glyph-name="s" horiz-adv-x="584" unicode="s"/>
<glyph d="M464 120l20 -92q-55 -33 -135 -39q-12 -1 -22 -1q-118 0 -170 90q-31 55 -31 133v233h-102v106h102v125l113 25v-150h226v-106h-226v-227q0 -115 95 -123q7 -1 13 -1q41 0 117 27z" glyph-name="t" horiz-adv-x="521" unicode="t"/>
<glyph d="M439 550h113v-550h-113v91q-65 -102 -183 -103q-123 0 -171 99q-24 50 -24 116v347h113v-324q2 -129 118 -130q105 0 136 94q11 33 11 75v285z" glyph-name="u" horiz-adv-x="616" unicode="u"/>
<glyph d="M437 550h120l-198 -550h-137l-198 550h120l146 -432z" glyph-name="v" horiz-adv-x="581" unicode="v"/>
<glyph d="M723 550h113l-157 -550h-132l-53 185l-55 251h-18l-55 -251l-53 -185h-132l-157 550h112l49 -173l64 -258l64 258l49 173h136l48 -173l64 -256l65 256z" glyph-name="w" horiz-adv-x="860" unicode="w"/>
<glyph d="M556 0h-135l-133 197l-128 -197h-136l197 283l-186 267h135l122 -184l118 184h136l-186 -269z" glyph-name="x" horiz-adv-x="580" unicode="x"/>
<glyph d="M460 550h121l-364 -800h-121l145 320l-217 480h121l156 -358z" glyph-name="y" horiz-adv-x="605" unicode="y"/>
<glyph d="M183 107h320v-107h-464v107l314 336h-296v107h441v-107z" glyph-name="z" horiz-adv-x="542" unicode="z"/>
<glyph d="M318 422q0 -106 -54 -140q-24 -15 -59 -22q78 -16 100 -73q13 -34 13 -89v-40q0 -142 40 -183q25 -25 74 -29v-108q-136 0 -193 114q-34 68 -34 168v46q0 86 -22 112q-24 26 -77 26h-24v112h24q72 0 89 48q10 28 10 90v46q0 195 121 258q47 24 106 24v-108 q-69 -6 -92 -55q-22 -47 -22 -157v-40z" glyph-name="braceleft" horiz-adv-x="513" unicode="{"/>
<glyph d="M195 700v-794h-113v794h113z" glyph-name="bar" horiz-adv-x="276" unicode="|"/>
<glyph d="M407 316h25v-112h-25q-72 0 -89 -48q-10 -28 -10 -90v-46q0 -195 -120 -258q-47 -24 -106 -24v108q68 6 91 54q22 47 22 158v40q0 106 56 141q23 14 57 21q-78 16 -100 74q-13 34 -13 88v40q0 142 -38 182q-25 26 -75 30v108q134 0 191 -113q35 -68 35 -169v-46 q0 -86 22 -112q24 -26 77 -26z" glyph-name="braceright" horiz-adv-x="513" unicode="}"/>
<glyph d="M434 234q-43 0 -102 36q-2 1 -19 11q-11 6 -30 17q-39 23 -58 23q-48 -2 -49 -75h-94q1 175 123 176q42 0 100 -34q4 -2 11.5 -6.5t10.5 -6.5q12 -6 30 -17q39 -23 57 -23q49 2 50 75h94q-1 -175 -124 -176z" glyph-name="asciitilde" horiz-adv-x="639" unicode="~"/>
<glyph d="M155 333q-47 0 -66 38q-7 16 -7 32q0 46 40 64q16 7 33 7q47 0 67 -39q7 -15 7 -32q0 -44 -40 -63q-16 -7 -34 -7zM212 -238h-114v252l8 228h99l7 -228v-252z" glyph-name="exclamdown" horiz-adv-x="310" unicode="¡"/>
<glyph d="M333 93q87 0 132 64q15 20 22 44h117q-23 -121 -129 -178q-40 -22 -86 -30v-143h-112v143q-120 22 -184 122q-45 71 -45 160q0 131 91 214q59 53 138 68v143h112v-143q117 -21 178 -113q27 -43 37 -94h-117q-23 76 -100 99q-26 8 -53 8q-94 0 -142 -74q-30 -47 -30 -108 q0 -99 70 -150q44 -32 101 -32z" glyph-name="cent" horiz-adv-x="642" unicode="¢"/>
<glyph d="M559 194h114q0 -147 -100 -181q-37 -13 -90 -13h-421v108h39q54 0 64 37q3 14 3 33v112h-106v100h106v99q0 127 89 186q57 37 137 37q134 0 195 -93q37 -55 37 -131h-114q-2 115 -112 116q-118 -2 -119 -120v-94h191v-100h-191v-106q-1 -56 -32 -76h219q65 0 81 29 q10 19 10 57z" glyph-name="sterling" horiz-adv-x="735" unicode="£"/>
<glyph d="M605 349q0 -66 -32 -122l83 -85l-79 -80l-83 84q-59 -34 -125 -34q-67 1 -124 35l-83 -85l-80 80l84 84q-32 55 -32 123q1 68 33 124l-85 84l80 80l84 -85q56 34 123 34q68 -1 124 -33l83 84l80 -80l-84 -84q33 -57 33 -124zM369 212q74 0 112 58q22 35 22 79 q0 78 -60 116q-34 21 -74 21q-71 0 -110 -57q-23 -35 -23 -80q0 -78 61 -116q33 -21 72 -21z" glyph-name="currency" horiz-adv-x="738" unicode="¤"/>
<glyph d="M682 700l-228 -414h149v-62h-174v-60h174v-62h-174v-102h-113v102h-175v62h175v60h-175v62h149l-228 414h128l182 -334l182 334h128z" glyph-name="yen" horiz-adv-x="744" unicode="¥"/>
<glyph d="M195 700v-355h-113v355h113zM195 261v-355h-113v355h113z" glyph-name="brokenbar" horiz-adv-x="276" unicode="¦"/>
<glyph d="M477 187q73 -34 78 -106v-12q0 -111 -106 -154q-52 -21 -120 -21q-159 0 -217 103q-15 28 -22 60h115q23 -75 127 -76q84 0 104 50q5 13 5 26q0 28 -34 42q-22 9 -86 24q-132 32 -176 58q-61 38 -62 106q0 77 80 129q2 1 3 2q-68 33 -77 96q-1 11 -1 23q0 107 102 151 q55 24 127 24q165 0 219 -110q12 -24 17 -50h-114q-23 72 -125 73q-79 0 -104 -44q-8 -15 -8 -32q0 -27 34 -41q22 -9 87 -25q131 -32 174 -57q62 -39 63 -108q0 -75 -77 -127q-4 -2 -6 -4zM200 311q0 -34 36 -50q21 -9 110 -32q6 -2 18 -4q17 -5 25 -7q52 41 55 77 q0 34 -36 50q-21 9 -110 32q-19 4 -44 11q-51 -40 -54 -77z" glyph-name="section" horiz-adv-x="644" unicode="§"/>
<glyph d="M149 793q46 0 62 -38q5 -13 5 -26q0 -43 -38 -59q-14 -6 -29 -6q-44 0 -61 37q-6 14 -6 28q0 41 37 58q15 6 30 6zM376 793q45 0 62 -37q6 -13 6 -27q0 -44 -39 -60q-14 -5 -29 -5q-45 0 -62 37q-6 14 -6 28q0 42 38 58q14 6 30 6z" glyph-name="dieresis" horiz-adv-x="526" unicode="¨"/>
<glyph d="M352 782q116 0 196 -85q74 -78 74 -185q0 -116 -85 -196q-78 -74 -185 -74q-116 0 -196 85q-74 78 -74 185q0 116 85 196q78 74 185 74zM352 289q101 0 167 76q55 63 55 147q0 100 -75 167q-63 55 -147 55q-100 0 -167 -75q-55 -63 -55 -147q0 -102 75 -168 q64 -55 147 -55zM353 596q-51 0 -72 -45q-8 -18 -8 -39q0 -55 44 -76q17 -8 36 -8q52 1 70 47h62q-15 -66 -77 -92q-26 -11 -55 -11q-74 0 -115 59q-24 36 -24 81q0 75 58 116q36 24 81 24q71 0 111 -55q15 -22 21 -48h-62q-21 45 -70 47z" glyph-name="copyright" horiz-adv-x="703" unicode="©"/>
<glyph d="M298 63l-216 216l216 216l77 -78l-139 -138l139 -138zM552 63l-217 216l217 216l77 -78l-139 -138l139 -138z" glyph-name="guillemotleft" horiz-adv-x="710" unicode="«"/>
<glyph d="M583 353v-239h-113v131h-388v108h501z" glyph-name="logicalnot" horiz-adv-x="664" unicode="¬"/>
<glyph d="M352 782q116 0 196 -85q74 -78 74 -185q0 -116 -85 -196q-78 -74 -185 -74q-116 0 -196 85q-74 78 -74 185q0 116 85 196q78 74 185 74zM352 289q101 0 167 76q55 63 55 147q0 100 -75 167q-63 55 -147 55q-101 0 -168 -75q-55 -64 -55 -147q0 -101 76 -168 q64 -55 147 -55zM467 558q0 -61 -57 -79q-5 -2 -10 -3l78 -101h-70l-74 98h-27v-98h-58v269h130q69 0 85 -58q3 -14 3 -28zM307 594v-76h56q44 3 45 39q-9 34 -45 37h-56z" glyph-name="registered" horiz-adv-x="703" unicode="®"/>
<glyph d="M332 770v-83h-250v83h250z" glyph-name="macron" horiz-adv-x="414" unicode="¯"/>
<glyph d="M253 782q84 0 135 -65q37 -47 37 -106q0 -82 -64 -134q-48 -38 -108 -38q-81 0 -132 63q-39 48 -39 109q-1 83 64 134q47 37 107 37zM253 700q-50 0 -76 -43q-12 -22 -12 -47q-1 -52 43 -78q21 -12 45 -12q50 0 76 43q13 22 13 47q0 52 -44 78q-21 12 -45 12z" glyph-name="degree" horiz-adv-x="506" unicode="°"/>
<glyph d="M389 545v-135h194v-86h-194v-138h-113v138h-194v86h194v135h113zM583 146v-86h-501v86h501z" glyph-name="plusminus" horiz-adv-x="664" unicode="±"/>
<glyph d="M167 451h219v-79h-352v71l146 110q72 54 84 76q7 14 7 29q0 41 -42 49q-9 2 -18 2q-64 0 -73 -70v-2h-99q8 88 82 125q40 20 92 20q103 0 142 -69q15 -28 15 -60q0 -61 -70 -115q-25 -18 -64 -42z" glyph-name="uni00B2" horiz-adv-x="420" unicode="²"/>
<glyph d="M324 584q60 -33 61 -97q0 -67 -61 -102q-44 -24 -106 -24q-119 0 -165 77q-15 27 -19 59h99q14 -63 81 -64q60 0 70 43q2 8 2 15q-4 51 -53 53h-64v64h51q40 0 51 32q3 8 3 17q0 41 -44 50q-9 2 -19 2q-62 -2 -71 -64h-99q7 86 86 120q38 17 86 17q102 0 143 -65 q17 -28 17 -59q-1 -49 -49 -74z" glyph-name="uni00B3" horiz-adv-x="419" unicode="³"/>
<glyph d="M245 840l68 -68l-180 -147l-51 52z" glyph-name="acute" horiz-adv-x="395" unicode="´"/>
<glyph d="M184 700h404v-801h-113v693h-135v-693h-113v509h-43q-61 0 -89 49q-13 25 -13 53v88q0 61 49 89q25 13 53 13z" glyph-name="paragraph" horiz-adv-x="670" unicode="¶"/>
<glyph d="M155 383q47 0 67 -39q7 -15 7 -32q0 -44 -40 -63q-16 -7 -34 -7q-47 0 -66 38q-7 16 -7 32q0 46 40 64q16 7 33 7z" glyph-name="periodcentered" horiz-adv-x="310" unicode="·"/>
<glyph d="M195 -79q77 -15 89 -72q2 -9 2 -18q0 -70 -89 -88q-26 -5 -56 -5q-27 0 -59 4v58q33 -4 46 -4q69 1 70 41q0 42 -89 50h-2l49 113h78z" glyph-name="cedilla" horiz-adv-x="355" unicode="¸"/>
<glyph d="M198 770h51v-398h-97v297l-118 -40v89z" glyph-name="uni00B9" horiz-adv-x="283" unicode="¹"/>
<glyph d="M159 63l-77 78l139 138l-139 138l77 78l216 -216zM413 63l-78 78l139 138l-139 138l78 78l216 -216z" glyph-name="guillemotright" horiz-adv-x="710" unicode="»"/>
<glyph d="M249 302h-97v297l-118 -40v89l164 52h51v-398zM577 700h109l-400 -700h-109zM883 158v-79h-71v-79h-98v79h-206v79l183 240h121v-240h71zM588 158h126v168z" glyph-name="onequarter" horiz-adv-x="917" unicode="¼"/>
<glyph d="M249 302h-97v297l-118 -40v89l164 52h51v-398zM577 700h109l-400 -700h-109zM708 79h220v-79h-352v70l146 110q71 54 83 75q8 14 8 30q0 43 -44 51q-8 1 -16 1q-64 0 -73 -71v-2h-99q8 88 82 125q40 20 92 20q103 0 142 -69q15 -28 15 -59q0 -60 -70 -114 q-25 -20 -64 -44z" glyph-name="onehalf" horiz-adv-x="962" unicode="½"/>
<glyph d="M385 417q0 -67 -61 -102q-44 -24 -106 -24q-119 0 -165 77q-15 27 -19 59h99q14 -63 81 -64q60 0 70 43q2 8 2 15q-4 51 -53 53h-64v64h51q40 0 51 32q3 8 3 17q0 41 -44 50q-9 2 -19 2q-62 -2 -71 -64h-99q7 86 86 120q38 17 86 17q102 0 143 -65q17 -28 17 -59 q-1 -49 -49 -74q60 -33 61 -97zM675 700h109l-400 -700h-109zM981 158v-79h-71v-79h-98v79h-206v79l183 240h121v-240h71zM686 158h126v168z" glyph-name="threequarters" horiz-adv-x="1015" unicode="¾"/>
<glyph d="M295 462q50 0 69 -39q7 -16 7 -32q0 -46 -43 -64q-16 -6 -33 -6q-50 0 -69 40q-6 14 -6 30q0 47 42 65q16 6 33 6zM351 230v-52q0 -60 -43 -93q-20 -15 -66 -39q-62 -32 -77 -56q-11 -18 -11 -43q0 -72 71 -95q27 -9 61 -9q121 0 134 123v2h114q-10 -148 -126 -204 q-56 -26 -127 -26q-133 0 -198 81q-42 52 -42 125q0 87 72 139q23 17 64 38q49 26 59 51q5 12 5 27v31h110z" glyph-name="questiondown" horiz-adv-x="575" unicode="¿"/>
<glyph d="M489 821l-52 -51l-179 147l67 68zM597 0l-71 188h-304l-71 -188h-120l271 700h144l271 -700h-120zM263 295h222l-111 293z" glyph-name="Agrave" horiz-adv-x="748" unicode="À"/>
<glyph d="M489 917l-180 -147l-51 51l163 164zM597 0l-71 188h-304l-71 -188h-120l271 700h144l271 -700h-120zM263 295h222l-111 293z" glyph-name="Aacute" horiz-adv-x="748" unicode="Á"/>
<glyph d="M374 878l-102 -108l-61 61l163 164l164 -164l-62 -61zM597 0l-71 188h-304l-71 -188h-120l271 700h144l271 -700h-120zM263 295h222l-111 293z" glyph-name="Acircumflex" horiz-adv-x="748" unicode="Â"/>
<glyph d="M305 852q-36 -2 -37 -63h-70q1 150 103 151q34 0 68 -27q6 -5 13 -11q43 -31 60 -33q37 2 38 64h70q-1 -151 -104 -152q-34 0 -70 29q-5 4 -11 9q-41 31 -60 33zM597 0l-71 188h-304l-71 -188h-120l271 700h144l271 -700h-120zM263 295h222l-111 293z" glyph-name="Atilde" horiz-adv-x="748" unicode="Ã"/>
<glyph d="M260 809q-43 0 -60 36q-7 14 -7 29q0 42 37 59q15 6 30 6q44 0 61 -37q6 -14 6 -28q0 -43 -38 -59q-14 -6 -29 -6zM487 809q-44 0 -62 37q-6 13 -6 28q0 42 38 59q15 6 30 6q44 0 62 -37q6 -13 6 -28q0 -42 -38 -59q-15 -6 -30 -6zM597 0l-71 188h-304l-71 -188h-120 l271 700h144l271 -700h-120zM263 295h222l-111 293z" glyph-name="Adieresis" horiz-adv-x="748" unicode="Ä"/>
<glyph d="M373 770q-65 0 -102 53q-23 33 -23 73q0 67 54 104q32 22 71 22q66 0 103 -53q23 -33 23 -73q1 -64 -52 -102q-34 -24 -74 -24zM373 955q-37 0 -53 -33q-5 -13 -5 -27q-1 -38 33 -54q12 -6 25 -6q37 0 53 33q6 13 6 27q0 40 -34 55q-13 5 -25 5zM597 0l-71 188h-304 l-71 -188h-120l271 700h144l271 -700h-120zM263 295h222l-111 293z" glyph-name="Aring" horiz-adv-x="748" unicode="Å"/>
<glyph d="M833 592h-344v-181h318v-108h-318v-195h344v-108h-457v188h-154l-71 -188h-120l271 700h144h387v-108zM263 295h113v298z" glyph-name="AE" horiz-adv-x="874" unicode="Æ"/>
<glyph d="M415 96q117 0 185 86q18 23 30 49h121q-41 -132 -158 -198q-74 -41 -163 -45l-34 -67q78 -15 90 -72q2 -9 2 -18q0 -70 -89 -88q-26 -5 -56 -5q-27 0 -59 4v58q33 -4 46 -4q69 1 70 41q0 42 -89 50h-2l46 106q-145 22 -229 136q-71 95 -71 221q0 157 105 261 q103 101 256 101t254 -104q57 -59 81 -139h-121q-43 94 -141 124q-36 11 -74 11q-119 0 -189 -87q-57 -70 -57 -167q0 -123 84 -196q68 -58 162 -58z" glyph-name="Ccedilla" horiz-adv-x="792" unicode="Ç"/>
<glyph d="M406 821l-52 -51l-179 147l67 68zM539 592h-344v-181h319v-108h-319v-195h344v-108h-457v700h457v-108z" glyph-name="Egrave" horiz-adv-x="580" unicode="È"/>
<glyph d="M406 917l-180 -147l-51 51l163 164zM539 592h-344v-181h319v-108h-319v-195h344v-108h-457v700h457v-108z" glyph-name="Eacute" horiz-adv-x="580" unicode="É"/>
<glyph d="M290 878l-102 -108l-61 61l163 164l164 -164l-62 -61zM539 592h-344v-181h319v-108h-319v-195h344v-108h-457v700h457v-108z" glyph-name="Ecircumflex" horiz-adv-x="580" unicode="Ê"/>
<glyph d="M176 809q-43 0 -60 36q-7 14 -7 29q0 42 37 59q15 6 30 6q44 0 61 -37q6 -14 6 -28q0 -43 -38 -59q-14 -6 -29 -6zM403 809q-44 0 -62 37q-6 13 -6 28q0 42 38 59q15 6 30 6q44 0 62 -37q6 -13 6 -28q0 -42 -38 -59q-15 -6 -30 -6zM539 592h-344v-181h319v-108h-319v-195 h344v-108h-457v700h457v-108z" glyph-name="Edieresis" horiz-adv-x="580" unicode="Ë"/>
<glyph d="M89 985l164 -164l-52 -51l-179 147zM82 0v700h113v-700h-113z" glyph-name="Igrave" horiz-adv-x="277" unicode="Ì"/>
<glyph d="M185 985l68 -68l-180 -147l-51 51zM82 0v700h113v-700h-113z" glyph-name="Iacute" horiz-adv-x="277" unicode="Í"/>
<glyph d="M302 831l-62 -61l-102 108l-102 -108l-61 61l163 164zM82 0v700h113v-700h-113z" glyph-name="Icircumflex" horiz-adv-x="277" unicode="Î"/>
<glyph d="M24 939q44 0 61 -37q6 -14 6 -28q0 -43 -38 -59q-14 -6 -29 -6q-43 0 -60 36q-7 14 -7 29q0 42 37 59q15 6 30 6zM251 939q44 0 62 -37q6 -13 6 -28q0 -42 -38 -59q-15 -6 -30 -6q-44 0 -62 37q-6 13 -6 28q0 42 38 59q15 6 30 6zM82 0v700h113v-700h-113z" glyph-name="Idieresis" horiz-adv-x="277" unicode="Ï"/>
<glyph d="M327 700q156 0 259 -102q99 -100 99 -248q0 -153 -105 -253q-103 -97 -253 -97h-245v296h-64v108h64v296h245zM328 108q120 0 190 84q54 66 54 158q0 120 -86 189q-66 53 -158 53h-133v-188h122v-108h-122v-188h133z" glyph-name="Eth" horiz-adv-x="737" unicode="Ð"/>
<glyph d="M301 852q-36 -2 -37 -63h-70q1 150 103 151q34 0 68 -27q6 -5 13 -11q43 -31 60 -33q37 2 38 64h70q-1 -151 -104 -152q-34 0 -70 29q-5 4 -11 9q-41 31 -60 33zM550 700h113v-700h-134l-350 541l11 -248v-293h-113v700h133l350 -540l-10 247v293z" glyph-name="Ntilde" horiz-adv-x="740" unicode="Ñ"/>
<glyph d="M366 985l164 -164l-52 -51l-179 147zM415 712q153 0 257 -103q105 -105 106 -259q-1 -154 -104 -258q-105 -104 -259 -104q-153 0 -257 102q-105 107 -106 260q0 154 104 258q106 103 259 104zM415 604q-117 0 -189 -84q-60 -71 -60 -170q0 -120 84 -194q70 -60 165 -60 q116 0 188 84q60 71 60 170q0 120 -84 194q-69 60 -164 60z" glyph-name="Ograve" horiz-adv-x="829" unicode="Ò"/>
<glyph d="M462 985l68 -68l-180 -147l-51 51zM415 712q153 0 257 -103q105 -105 106 -259q-1 -154 -104 -258q-105 -104 -259 -104q-153 0 -257 102q-105 107 -106 260q0 154 104 258q106 103 259 104zM415 604q-117 0 -189 -84q-60 -71 -60 -170q0 -120 84 -194q70 -60 165 -60 q116 0 188 84q60 71 60 170q0 120 -84 194q-69 60 -164 60z" glyph-name="Oacute" horiz-adv-x="829" unicode="Ó"/>
<glyph d="M578 831l-62 -61l-102 108l-102 -108l-61 61l163 164zM415 712q153 0 257 -103q105 -105 106 -259q-1 -154 -104 -258q-105 -104 -259 -104q-153 0 -257 102q-105 107 -106 260q0 154 104 258q106 103 259 104zM415 604q-117 0 -189 -84q-60 -71 -60 -170q0 -120 84 -194 q70 -60 165 -60q116 0 188 84q60 71 60 170q0 120 -84 194q-69 60 -164 60z" glyph-name="Ocircumflex" horiz-adv-x="829" unicode="Ô"/>
<glyph d="M520 933h70q-1 -151 -104 -152q-34 0 -70 29q-5 4 -11 9q-41 31 -60 33q-36 -2 -37 -63h-70q1 150 103 151q34 0 68 -27q6 -5 13 -11q43 -31 60 -33q37 2 38 64zM415 712q153 0 257 -103q105 -105 106 -259q-1 -154 -104 -258q-105 -104 -259 -104q-153 0 -257 102 q-105 107 -106 260q0 154 104 258q106 103 259 104zM415 604q-117 0 -189 -84q-60 -71 -60 -170q0 -120 84 -194q70 -60 165 -60q116 0 188 84q60 71 60 170q0 120 -84 194q-69 60 -164 60z" glyph-name="Otilde" horiz-adv-x="829" unicode="Õ"/>
<glyph d="M300 939q44 0 61 -37q6 -14 6 -28q0 -43 -38 -59q-14 -6 -29 -6q-43 0 -60 36q-7 14 -7 29q0 42 37 59q15 6 30 6zM527 939q44 0 62 -37q6 -13 6 -28q0 -42 -38 -59q-15 -6 -30 -6q-44 0 -62 37q-6 13 -6 28q0 42 38 59q15 6 30 6zM415 712q153 0 257 -103 q105 -105 106 -259q-1 -154 -104 -258q-105 -104 -259 -104q-153 0 -257 102q-105 107 -106 260q0 154 104 258q106 103 259 104zM415 604q-117 0 -189 -84q-60 -71 -60 -170q0 -120 84 -194q70 -60 165 -60q116 0 188 84q60 71 60 170q0 120 -84 194q-69 60 -164 60z" glyph-name="Odieresis" horiz-adv-x="829" unicode="Ö"/>
<glyph d="M503 547l77 -77l-173 -172l173 -173l-77 -76l-173 173l-172 -173l-76 76l172 173l-172 172l76 77l172 -172z" glyph-name="multiply" horiz-adv-x="661" unicode="×"/>
<glyph d="M616 654q117 -75 151 -212q11 -45 11 -92q-1 -154 -104 -258q-105 -104 -259 -104q-57 0 -108 15l-18 -38h-114l38 81q-114 73 -149 207q-12 48 -12 97q0 154 104 258q106 103 259 104q57 0 106 -15l18 38h115zM166 350q0 -120 86 -195q5 -5 9 -8l213 450q-27 7 -59 7 q-117 0 -189 -84q-60 -71 -60 -170zM415 96q116 0 188 84q60 71 60 170q0 121 -85 195l-10 8l-214 -450q29 -7 61 -7z" glyph-name="Oslash" horiz-adv-x="829" unicode="Ø"/>
<glyph d="M314 985l164 -164l-52 -51l-179 147zM533 700h115v-421q0 -176 -123 -250q-68 -41 -160 -41q-154 0 -229 104q-54 74 -54 187v421h115v-414q0 -159 121 -185q23 -5 47 -5q131 0 160 120q8 32 8 70v414z" glyph-name="Ugrave" horiz-adv-x="725" unicode="Ù"/>
<glyph d="M410 985l68 -68l-180 -147l-51 51zM533 700h115v-421q0 -176 -123 -250q-68 -41 -160 -41q-154 0 -229 104q-54 74 -54 187v421h115v-414q0 -159 121 -185q23 -5 47 -5q131 0 160 120q8 32 8 70v414z" glyph-name="Uacute" horiz-adv-x="725" unicode="Ú"/>
<glyph d="M527 831l-62 -61l-102 108l-102 -108l-61 61l163 164zM533 700h115v-421q0 -176 -123 -250q-68 -41 -160 -41q-154 0 -229 104q-54 74 -54 187v421h115v-414q0 -159 121 -185q23 -5 47 -5q131 0 160 120q8 32 8 70v414z" glyph-name="Ucircumflex" horiz-adv-x="725" unicode="Û"/>
<glyph d="M249 939q44 0 61 -37q6 -14 6 -28q0 -43 -38 -59q-14 -6 -29 -6q-43 0 -60 36q-7 14 -7 29q0 42 37 59q15 6 30 6zM476 939q44 0 62 -37q6 -13 6 -28q0 -42 -38 -59q-15 -6 -30 -6q-44 0 -62 37q-6 13 -6 28q0 42 38 59q15 6 30 6zM533 700h115v-421q0 -176 -123 -250 q-68 -41 -160 -41q-154 0 -229 104q-54 74 -54 187v421h115v-414q0 -159 121 -185q23 -5 47 -5q131 0 160 120q8 32 8 70v414z" glyph-name="Udieresis" horiz-adv-x="725" unicode="Ü"/>
<glyph d="M456 917l-180 -147l-51 51l163 164zM650 700l-252 -459l-1 -241h-113v239l-253 461h128l182 -334l182 334h127z" glyph-name="Yacute" horiz-adv-x="681" unicode="Ý"/>
<glyph d="M369 608q143 0 208 -96q38 -57 38 -134q0 -127 -93 -190q-63 -43 -153 -43h-174v-145h-113v700h113v-92h174zM365 253q101 0 128 77q7 22 7 47q0 87 -75 114q-27 9 -60 9h-170v-247h170z" glyph-name="Thorn" horiz-adv-x="666" unicode="Þ"/>
<glyph d="M461 403q90 -26 120 -119q12 -37 12 -78q0 -125 -95 -184q-57 -34 -131 -34q-83 0 -141 23l23 104q52 -19 99 -19q93 0 122 67q9 23 9 51q0 85 -77 110q-27 8 -58 8h-84v108h69q77 0 105 59q11 25 11 54q0 74 -59 105q-31 16 -72 16q-104 0 -128 -91q-7 -24 -7 -53v-530 h-113v532q0 146 102 212q61 38 146 38q135 0 203 -89q42 -56 42 -128q0 -103 -82 -153q-8 -5 -16 -9z" glyph-name="germandbls" horiz-adv-x="632" unicode="ß"/>
<glyph d="M458 675l-52 -51l-179 147l67 68zM494 550h113v-550h-113v92q-73 -100 -192 -104q-120 0 -193 93q-61 80 -61 194q0 140 88 222q69 65 165 65q120 0 188 -98q3 -5 5 -8v94zM326 96q88 0 136 68q33 48 33 111q0 96 -69 147q-44 32 -100 32q-88 0 -134 -71 q-30 -47 -30 -108q0 -100 69 -150q42 -29 95 -29z" glyph-name="agrave" unicode="à"/>
<glyph d="M458 772l-180 -147l-51 52l163 163zM494 550h113v-550h-113v92q-73 -100 -192 -104q-120 0 -193 93q-61 80 -61 194q0 140 88 222q69 65 165 65q120 0 188 -98q3 -5 5 -8v94zM326 96q88 0 136 68q33 48 33 111q0 96 -69 147q-44 32 -100 32q-88 0 -134 -71 q-30 -47 -30 -108q0 -100 69 -150q42 -29 95 -29z" glyph-name="aacute" unicode="á"/>
<glyph d="M342 734l-102 -109l-61 61l163 164l164 -164l-62 -61zM494 550h113v-550h-113v92q-73 -100 -192 -104q-120 0 -193 93q-61 80 -61 194q0 140 88 222q69 65 165 65q120 0 188 -98q3 -5 5 -8v94zM326 96q88 0 136 68q33 48 33 111q0 96 -69 147q-44 32 -100 32 q-88 0 -134 -71q-30 -47 -30 -108q0 -100 69 -150q42 -29 95 -29z" glyph-name="acircumflex" unicode="â"/>
<glyph d="M274 713q-36 -2 -37 -63h-70q1 150 103 151q34 0 68 -27q6 -5 13 -11q43 -31 60 -33q37 2 38 64h70q-1 -151 -104 -152q-34 0 -70 29q-5 4 -11 9q-41 31 -60 33zM494 550h113v-550h-113v92q-73 -100 -192 -104q-120 0 -193 93q-61 80 -61 194q0 140 88 222q69 65 165 65 q120 0 188 -98q3 -5 5 -8v94zM326 96q88 0 136 68q33 48 33 111q0 96 -69 147q-44 32 -100 32q-88 0 -134 -71q-30 -47 -30 -108q0 -100 69 -150q42 -29 95 -29z" glyph-name="atilde" unicode="ã"/>
<glyph d="M229 664q-44 0 -61 37q-6 14 -6 28q0 41 37 58q15 6 30 6q46 0 62 -38q5 -13 5 -26q0 -43 -38 -59q-14 -6 -29 -6zM456 664q-45 0 -62 37q-6 14 -6 28q0 42 38 58q14 6 30 6q45 0 62 -37q6 -13 6 -27q0 -44 -39 -60q-14 -5 -29 -5zM494 550h113v-550h-113v92 q-73 -100 -192 -104q-120 0 -193 93q-61 80 -61 194q0 140 88 222q69 65 165 65q120 0 188 -98q3 -5 5 -8v94zM326 96q88 0 136 68q33 48 33 111q0 96 -69 147q-44 32 -100 32q-88 0 -134 -71q-30 -47 -30 -108q0 -100 69 -150q42 -29 95 -29z" glyph-name="adieresis" unicode="ä"/>
<glyph d="M342 625q-65 0 -102 54q-23 33 -23 72q0 67 54 104q32 22 71 22q66 0 103 -53q23 -33 23 -73q1 -64 -52 -102q-34 -24 -74 -24zM342 811q-36 0 -52 -32q-6 -14 -6 -28q-1 -38 33 -54q12 -6 25 -6q39 0 54 34q5 13 5 26q0 39 -34 55q-13 5 -25 5zM494 550h113v-550h-113 v92q-73 -100 -192 -104q-120 0 -193 93q-61 80 -61 194q0 140 88 222q69 65 165 65q120 0 188 -98q3 -5 5 -8v94zM326 96q88 0 136 68q33 48 33 111q0 96 -69 147q-44 32 -100 32q-88 0 -134 -71q-30 -47 -30 -108q0 -100 69 -150q42 -29 95 -29z" glyph-name="aring" unicode="å"/>
<glyph d="M779 562q139 0 218 -101q67 -89 60 -217h-447q9 -102 92 -140q36 -17 80 -17q98 0 141 70q3 7 6 12h117q-44 -126 -167 -166q-47 -15 -98 -15q-115 1 -192 68v-57h-95v91q-63 -98 -181 -103h-11q-118 0 -191 92q-63 80 -63 196q0 140 88 222q70 65 166 65q121 0 190 -102 q2 -3 3 -5v95h95l-1 -56q80 68 190 68zM779 464q-96 0 -143 -79q-13 -23 -20 -49h320q-19 85 -92 116q-31 12 -65 12zM326 96q89 0 137 69q32 47 32 110q0 96 -69 147q-44 32 -100 32q-87 0 -133 -70q-31 -47 -31 -109q0 -100 69 -150q42 -29 95 -29z" glyph-name="ae" horiz-adv-x="1101" unicode="æ"/>
<glyph d="M333 93q87 0 132 64q15 20 22 44h117q-23 -120 -129 -178q-53 -28 -116 -34l-35 -68q78 -15 90 -72q2 -9 2 -18q0 -70 -89 -88q-26 -5 -56 -5q-27 0 -59 4v58q33 -4 46 -4q69 1 70 41q0 42 -89 50h-2l46 105q-121 20 -187 119q-48 73 -48 164q0 131 91 214q81 73 195 73 q123 0 203 -81q52 -55 67 -131h-117q-23 76 -100 99q-26 8 -53 8q-94 0 -142 -74q-30 -47 -30 -108q0 -99 70 -150q44 -32 101 -32z" glyph-name="ccedilla" horiz-adv-x="642" unicode="ç"/>
<glyph d="M442 675l-52 -51l-179 147l67 68zM332 562q139 0 218 -101q67 -89 60 -217h-447q9 -102 92 -140q36 -17 80 -17q98 0 141 70q3 7 6 12h117q-44 -126 -167 -166q-47 -15 -98 -15q-136 0 -218 94q-68 79 -68 192q0 135 92 218q79 70 192 70zM332 464q-96 0 -143 -79 q-13 -23 -20 -49h320q-19 85 -92 116q-31 12 -65 12z" glyph-name="egrave" horiz-adv-x="654" unicode="è"/>
<glyph d="M442 772l-180 -147l-51 52l163 163zM332 562q139 0 218 -101q67 -89 60 -217h-447q9 -102 92 -140q36 -17 80 -17q98 0 141 70q3 7 6 12h117q-44 -126 -167 -166q-47 -15 -98 -15q-136 0 -218 94q-68 79 -68 192q0 135 92 218q79 70 192 70zM332 464q-96 0 -143 -79 q-13 -23 -20 -49h320q-19 85 -92 116q-31 12 -65 12z" glyph-name="eacute" horiz-adv-x="654" unicode="é"/>
<glyph d="M326 734l-102 -109l-61 61l163 164l164 -164l-62 -61zM332 562q139 0 218 -101q67 -89 60 -217h-447q9 -102 92 -140q36 -17 80 -17q98 0 141 70q3 7 6 12h117q-44 -126 -167 -166q-47 -15 -98 -15q-136 0 -218 94q-68 79 -68 192q0 135 92 218q79 70 192 70zM332 464 q-96 0 -143 -79q-13 -23 -20 -49h320q-19 85 -92 116q-31 12 -65 12z" glyph-name="ecircumflex" horiz-adv-x="654" unicode="ê"/>
<glyph d="M212 664q-44 0 -61 37q-6 14 -6 28q0 41 37 58q15 6 30 6q46 0 62 -38q5 -13 5 -26q0 -43 -38 -59q-14 -6 -29 -6zM439 664q-45 0 -62 37q-6 14 -6 28q0 42 38 58q14 6 30 6q45 0 62 -37q6 -13 6 -27q0 -44 -39 -60q-14 -5 -29 -5zM332 562q139 0 218 -101 q67 -89 60 -217h-447q9 -102 92 -140q36 -17 80 -17q98 0 141 70q3 7 6 12h117q-44 -126 -167 -166q-47 -15 -98 -15q-136 0 -218 94q-68 79 -68 192q0 135 92 218q79 70 192 70zM332 464q-96 0 -143 -79q-13 -23 -20 -49h320q-19 85 -92 116q-31 12 -65 12z" glyph-name="edieresis" horiz-adv-x="654" unicode="ë"/>
<glyph d="M73 839l164 -164l-52 -51l-179 147zM66 0v550h113v-550h-113z" glyph-name="igrave" horiz-adv-x="244" unicode="ì"/>
<glyph d="M169 840l68 -68l-180 -147l-51 52zM66 0v550h113v-550h-113z" glyph-name="iacute" horiz-adv-x="244" unicode="í"/>
<glyph d="M286 686l-62 -61l-102 109l-102 -109l-61 61l163 164zM66 0v550h113v-550h-113z" glyph-name="icircumflex" horiz-adv-x="244" unicode="î"/>
<glyph d="M8 793q46 0 62 -38q5 -13 5 -26q0 -43 -38 -59q-14 -6 -29 -6q-44 0 -61 37q-6 14 -6 28q0 41 37 58q14 6 30 6zM235 793q45 0 62 -37q6 -13 6 -27q0 -44 -39 -60q-14 -5 -29 -5q-45 0 -62 37q-6 14 -6 28q0 42 38 58q14 6 30 6zM66 0v550h113v-550h-113z" glyph-name="idieresis" horiz-adv-x="244" unicode="ï"/>
<glyph d="M614 690l-74 -64q74 -110 74 -302q-2 -202 -126 -288q-70 -48 -161 -48q-130 0 -210 90q-69 79 -69 194q0 135 90 210q67 55 158 55q111 0 177 -77q13 -16 23 -33q-19 158 -132 211q-78 37 -223 37v107q211 -1 320 -77l79 68zM331 86q91 0 138 72q30 46 30 108 q0 94 -73 144q-45 30 -100 30q-89 0 -136 -69q-29 -45 -29 -105q0 -101 73 -151q43 -29 97 -29z" glyph-name="eth" horiz-adv-x="661" unicode="ð"/>
<glyph d="M242 713q-36 -2 -37 -63h-70q1 150 103 151q34 0 68 -27q6 -5 13 -11q43 -31 60 -33q37 2 38 64h70q-1 -151 -104 -152q-34 0 -70 29q-5 4 -11 9q-41 31 -60 33zM363 562q125 0 174 -99q24 -50 24 -116v-347h-113v324q-2 129 -120 130q-111 0 -140 -101q-9 -31 -9 -68 v-285h-113v550h113v-91q64 102 184 103z" glyph-name="ntilde" horiz-adv-x="622" unicode="ñ"/>
<glyph d="M284 839l164 -164l-52 -51l-179 147zM333 562q125 0 208 -87q77 -82 77 -200q0 -131 -92 -214q-81 -73 -193 -73q-125 0 -208 88q-77 82 -77 199q0 130 92 214q81 73 193 73zM333 454q-86 0 -136 -67q-35 -48 -35 -112q0 -96 70 -147q45 -32 101 -32q87 0 136 67 q35 48 35 112q0 95 -69 146q-45 33 -102 33z" glyph-name="ograve" horiz-adv-x="665" unicode="ò"/>
<glyph d="M380 840l68 -68l-180 -147l-51 52zM333 562q125 0 208 -87q77 -82 77 -200q0 -131 -92 -214q-81 -73 -193 -73q-125 0 -208 88q-77 82 -77 199q0 130 92 214q81 73 193 73zM333 454q-86 0 -136 -67q-35 -48 -35 -112q0 -96 70 -147q45 -32 101 -32q87 0 136 67 q35 48 35 112q0 95 -69 146q-45 33 -102 33z" glyph-name="oacute" horiz-adv-x="665" unicode="ó"/>
<glyph d="M496 686l-62 -61l-102 109l-102 -109l-61 61l163 164zM333 562q125 0 208 -87q77 -82 77 -200q0 -131 -92 -214q-81 -73 -193 -73q-125 0 -208 88q-77 82 -77 199q0 130 92 214q81 73 193 73zM333 454q-86 0 -136 -67q-35 -48 -35 -112q0 -96 70 -147q45 -32 101 -32 q87 0 136 67q35 48 35 112q0 95 -69 146q-45 33 -102 33z" glyph-name="ocircumflex" horiz-adv-x="665" unicode="ô"/>
<glyph d="M438 794h70q-1 -151 -104 -152q-34 0 -70 29q-5 4 -11 9q-41 31 -60 33q-36 -2 -37 -63h-70q1 150 103 151q34 0 68 -27q6 -5 13 -11q43 -31 60 -33q37 2 38 64zM333 562q125 0 208 -87q77 -82 77 -200q0 -131 -92 -214q-81 -73 -193 -73q-125 0 -208 88q-77 82 -77 199 q0 130 92 214q81 73 193 73zM333 454q-86 0 -136 -67q-35 -48 -35 -112q0 -96 70 -147q45 -32 101 -32q87 0 136 67q35 48 35 112q0 95 -69 146q-45 33 -102 33z" glyph-name="otilde" horiz-adv-x="665" unicode="õ"/>
<glyph d="M218 793q46 0 62 -38q5 -13 5 -26q0 -43 -38 -59q-14 -6 -29 -6q-44 0 -61 37q-6 14 -6 28q0 41 37 58q15 6 30 6zM445 793q45 0 62 -37q6 -13 6 -27q0 -44 -39 -60q-14 -5 -29 -5q-45 0 -62 37q-6 14 -6 28q0 42 38 58q14 6 30 6zM333 562q125 0 208 -87q77 -82 77 -200 q0 -131 -92 -214q-81 -73 -193 -73q-125 0 -208 88q-77 82 -77 199q0 130 92 214q81 73 193 73zM333 454q-86 0 -136 -67q-35 -48 -35 -112q0 -96 70 -147q45 -32 101 -32q87 0 136 67q35 48 35 112q0 95 -69 146q-45 33 -102 33z" glyph-name="odieresis" horiz-adv-x="665" unicode="ö"/>
<glyph d="M332 556q49 0 67 -39q7 -14 7 -30q0 -45 -41 -63q-16 -6 -33 -6q-49 0 -67 39q-7 14 -7 30q0 45 41 63q16 6 33 6zM583 353v-108h-501v108h501zM332 180q49 0 67 -39q7 -14 7 -30q0 -44 -41 -62q-16 -6 -33 -6q-49 0 -67 39q-7 14 -7 29q0 45 41 63q16 6 33 6z" glyph-name="divide" horiz-adv-x="664" unicode="÷"/>
<glyph d="M527 487q91 -84 91 -212q0 -131 -92 -214q-81 -73 -193 -73q-74 0 -139 35l-16 -23h-85l45 63q-89 84 -90 212q0 130 92 214q81 73 193 73q71 0 137 -34l16 22h86zM162 275q1 -71 41 -120l203 283q-36 16 -73 16q-86 0 -136 -67q-35 -48 -35 -112zM333 96q87 0 136 67 q35 48 35 112q-1 72 -43 121l-203 -284q37 -16 75 -16z" glyph-name="oslash" horiz-adv-x="665" unicode="ø"/>
<glyph d="M421 675l-52 -51l-179 147l67 68zM439 550h113v-550h-113v91q-65 -102 -183 -103q-123 0 -171 99q-24 50 -24 116v347h113v-324q2 -129 118 -130q105 0 136 94q11 33 11 75v285z" glyph-name="ugrave" horiz-adv-x="616" unicode="ù"/>
<glyph d="M421 772l-180 -147l-51 52l163 163zM439 550h113v-550h-113v91q-65 -102 -183 -103q-123 0 -171 99q-24 50 -24 116v347h113v-324q2 -129 118 -130q105 0 136 94q11 33 11 75v285z" glyph-name="uacute" horiz-adv-x="616" unicode="ú"/>
<glyph d="M306 734l-102 -109l-61 61l163 164l164 -164l-62 -61zM439 550h113v-550h-113v91q-65 -102 -183 -103q-123 0 -171 99q-24 50 -24 116v347h113v-324q2 -129 118 -130q105 0 136 94q11 33 11 75v285z" glyph-name="ucircumflex" horiz-adv-x="616" unicode="û"/>
<glyph d="M192 664q-44 0 -61 37q-6 14 -6 28q0 41 37 58q15 6 30 6q46 0 62 -38q5 -13 5 -26q0 -43 -38 -59q-14 -6 -29 -6zM419 664q-45 0 -62 37q-6 14 -6 28q0 42 38 58q14 6 30 6q45 0 62 -37q6 -13 6 -27q0 -44 -39 -60q-14 -5 -29 -5zM439 550h113v-550h-113v91 q-65 -102 -183 -103q-123 0 -171 99q-24 50 -24 116v347h113v-324q2 -129 118 -130q105 0 136 94q11 33 11 75v285z" glyph-name="udieresis" horiz-adv-x="616" unicode="ü"/>
<glyph d="M418 772l-180 -147l-51 52l163 163zM460 550h121l-364 -800h-121l145 320l-217 480h121l156 -358z" glyph-name="yacute" horiz-adv-x="605" unicode="ý"/>
<glyph d="M377 562q117 0 189 -91q64 -80 64 -196q0 -141 -88 -223q-70 -64 -166 -64q-119 0 -187 96q-3 5 -5 8v-342h-113v1020h113v-314q63 100 180 106h13zM352 96q88 0 134 71q30 46 30 108q0 99 -69 149q-42 30 -95 30q-87 0 -136 -69q-33 -47 -33 -110q0 -97 70 -148 q44 -31 99 -31z" glyph-name="thorn" horiz-adv-x="678" unicode="þ"/>
<glyph d="M194 809q-43 0 -60 36q-7 14 -7 29q0 42 37 59q15 6 30 6q44 0 61 -37q6 -14 6 -28q0 -43 -38 -59q-14 -6 -29 -6zM421 809q-44 0 -62 37q-6 13 -6 28q0 42 38 59q15 6 30 6q44 0 62 -37q6 -13 6 -28q0 -42 -38 -59q-15 -6 -30 -6zM539 592h-344v-181h319v-108h-319v-195 h344v-108h-457v700h457v-108z" glyph-name="uni0401" horiz-adv-x="580" unicode="Ё"/>
<glyph d="M415 96q117 0 185 86q18 23 30 49h121q-40 -132 -157 -198q-81 -45 -178 -45q-158 0 -261 106q-100 103 -100 256q0 157 105 261q103 101 256 101t254 -104q57 -59 81 -139h-121q-43 94 -141 124q-36 11 -74 11q-119 0 -190 -87q-38 -49 -51 -111h294v-108h-295 q21 -112 112 -167q58 -35 130 -35z" glyph-name="uni0404" horiz-adv-x="792" unicode="Є"/>
<glyph d="M82 0v700h113v-700h-113z" glyph-name="uni0406" horiz-adv-x="277" unicode="І"/>
<glyph d="M24 939q44 0 61 -37q6 -14 6 -28q0 -43 -38 -59q-14 -6 -29 -6q-43 0 -60 36q-7 14 -7 29q0 42 37 59q15 6 30 6zM251 939q44 0 62 -37q6 -13 6 -28q0 -42 -38 -59q-15 -6 -30 -6q-44 0 -62 37q-6 13 -6 28q0 42 38 59q15 6 30 6zM82 0v700h113v-700h-113z" glyph-name="uni0407" horiz-adv-x="277" unicode="Ї"/>
<glyph d="M532 955v-22q0 -88 -72 -132q-41 -24 -91 -24q-85 0 -132 60q-32 41 -32 96v22h90v-19q0 -54 47 -68q13 -4 27 -4q54 0 69 46q4 12 4 26v19h90zM681 700l-380 -700h-126l135 248l-248 452h127l184 -330l182 330h126z" glyph-name="uni040E" horiz-adv-x="712" unicode="Ў"/>
<glyph d="M597 0l-71 188h-304l-71 -188h-120l271 700h144l271 -700h-120zM263 295h222l-111 293z" glyph-name="uni0410" horiz-adv-x="748" unicode="А"/>
<glyph d="M383 427q181 0 222 -135q10 -35 10 -77q0 -136 -109 -189q-55 -26 -130 -26h-294v700h113h369v-108h-369v-165h188zM372 108q112 0 126 86q2 11 2 22q-2 106 -122 107h-183v-215h177z" glyph-name="uni0411" horiz-adv-x="655" unicode="Б"/>
<glyph d="M500 374q100 -30 114 -142q2 -17 2 -34q0 -125 -106 -174q-53 -24 -126 -24h-302v700h298q156 0 199 -104q14 -34 14 -76q-1 -103 -93 -146zM479 502q0 73 -69 86q-20 4 -44 4h-171v-180h172q106 0 112 80v10zM381 108q112 0 120 83q1 8 1 16q0 81 -73 96q-22 5 -49 5 h-185v-200h186z" glyph-name="uni0412" horiz-adv-x="657" unicode="В"/>
<glyph d="M514 700v-108h-319v-592h-113v700h432z" glyph-name="uni0413" horiz-adv-x="545" unicode="Г"/>
<glyph d="M686 108h100v-251h-113v143h-529v-143h-113v251h99q28 24 44 116l77 476h435v-592zM285 214q-12 -73 -30 -106h318v484h-227z" glyph-name="uni0414" horiz-adv-x="817" unicode="Д"/>
<glyph d="M539 592h-344v-181h319v-108h-319v-195h344v-108h-457v700h457v-108z" glyph-name="uni0415" horiz-adv-x="580" unicode="Е"/>
<glyph d="M987 0h-141l-281 333v-333h-113v333l-281 -333h-140l299 359l-286 341h139l269 -318v318h113v-318l269 318h139l-286 -341z" glyph-name="uni0416" horiz-adv-x="1017" unicode="Ж"/>
<glyph d="M473 368q91 -32 112 -122q5 -23 5 -47q0 -118 -102 -174q-67 -37 -161 -37q-161 0 -238 97q-40 52 -48 124h114q25 -112 170 -113q126 0 147 83q3 15 3 30q-2 99 -137 100h-106v100h85q134 1 135 89q0 73 -74 97q-29 9 -65 9q-104 0 -137 -69q-7 -16 -12 -35h-114 q21 153 159 197q49 15 107 15q133 0 204 -77q47 -53 47 -123q0 -83 -65 -128q-14 -10 -29 -16z" glyph-name="uni0417" horiz-adv-x="630" unicode="З"/>
<glyph d="M530 700h133v-700h-113v293l11 248l-351 -541h-133v700h113v-293l-10 -247z" glyph-name="uni0418" horiz-adv-x="740" unicode="И"/>
<glyph d="M370 777q-85 0 -132 60q-32 41 -32 96v22h90v-19q0 -54 47 -68q13 -4 27 -4q54 0 69 46q4 12 4 26v19h90v-22q0 -88 -72 -132q-41 -24 -91 -24zM530 700h133v-700h-113v293l11 248l-351 -541h-133v700h113v-293l-10 -247z" glyph-name="uni0419" horiz-adv-x="740" unicode="Й"/>
<glyph d="M634 0h-143l-296 334v-334h-113v700h113v-320l283 320h142l-302 -341z" glyph-name="uni041A" horiz-adv-x="665" unicode="К"/>
<glyph d="M240 700h437v-700h-113v592h-229l-61 -378q-31 -188 -131 -219q-23 -7 -50 -7q-28 0 -62 6v102q33 -3 40 -3q48 0 69 44q13 29 23 87z" glyph-name="uni041B" horiz-adv-x="759" unicode="Л"/>
<glyph d="M612 700h133v-700h-113v547l-216 -326h-11l-215 326v-547h-113v700h133l201 -302z" glyph-name="uni041C" horiz-adv-x="827" unicode="М"/>
<glyph d="M554 700h113v-700h-113v306h-359v-306h-113v700h113v-286h359v286z" glyph-name="uni041D" horiz-adv-x="748" unicode="Н"/>
<glyph d="M415 712q153 0 257 -103q105 -105 106 -259q-1 -154 -104 -258q-105 -104 -259 -104q-153 0 -257 102q-105 107 -106 260q0 154 104 258q106 103 259 104zM415 604q-117 0 -189 -84q-60 -71 -60 -170q0 -120 84 -194q70 -60 165 -60q116 0 188 84q60 71 60 170 q0 120 -84 194q-69 60 -164 60z" glyph-name="uni041E" horiz-adv-x="829" unicode="О"/>
<glyph d="M667 700v-700h-113v592h-359v-592h-113v700h113h472z" glyph-name="uni041F" horiz-adv-x="748" unicode="П"/>
<glyph d="M369 700q143 0 208 -96q38 -57 38 -134q0 -125 -91 -189q-64 -44 -155 -44h-174v-237h-113v700h287zM365 345q101 0 128 77q7 22 7 47q0 87 -75 114q-27 9 -60 9h-170v-247h170z" glyph-name="uni0420" horiz-adv-x="666" unicode="Р"/>
<glyph d="M416 -12q-158 0 -261 106q-100 103 -100 256q0 157 105 261q103 101 256 101t254 -104q57 -59 81 -139h-121q-43 94 -141 124q-36 11 -74 11q-119 0 -189 -87q-57 -70 -57 -167q0 -123 84 -196q68 -58 162 -58q117 0 185 86q18 23 30 49h121q-40 -132 -157 -198 q-81 -45 -178 -45z" glyph-name="uni0421" horiz-adv-x="792" unicode="С"/>
<glyph d="M571 700v-108h-214v-592h-113v592h-213v108h540z" glyph-name="uni0422" horiz-adv-x="602" unicode="Т"/>
<glyph d="M681 700l-380 -700h-126l135 248l-248 452h127l184 -330l182 330h126z" glyph-name="uni0423" horiz-adv-x="712" unicode="У"/>
<glyph d="M584 623q136 0 217 -86q67 -73 67 -180q0 -137 -102 -211q-76 -55 -182 -55h-58v-91h-113v91h-59q-138 0 -218 87q-66 73 -66 179q0 136 102 210q77 56 182 56h59v77h113v-77h58zM354 198h59v317h-59q-104 0 -148 -71q-22 -37 -22 -87q0 -105 87 -143q37 -16 83 -16z M584 198q105 0 149 73q21 37 21 86q0 104 -87 142q-37 16 -83 16h-58v-317h58z" glyph-name="uni0424" horiz-adv-x="920" unicode="Ф"/>
<glyph d="M627 0h-134l-165 266l-163 -266h-134l228 361l-218 339h135l155 -250l155 250h134l-220 -346z" glyph-name="uni0425" horiz-adv-x="658" unicode="Х"/>
<glyph d="M638 108h113v-251h-113v143h-556v108v592h113v-592h330v592h113v-592z" glyph-name="uni0426" horiz-adv-x="782" unicode="Ц"/>
<glyph d="M464 700h113v-700h-113v258q-71 -33 -168 -33q-179 0 -228 134q-16 45 -16 102v239h114v-226q0 -124 115 -139q18 -2 37 -2q97 0 146 30v337z" glyph-name="uni0427" horiz-adv-x="659" unicode="Ч"/>
<glyph d="M825 700h113v-614v-86h-856v108v592h113v-592h258v592h113v-592h259v592z" glyph-name="uni0428" horiz-adv-x="1019" unicode="Ш"/>
<glyph d="M938 108h113v-251h-113v143h-856v108v592h113v-592h258v592h113v-592h259v592h113v-592z" glyph-name="uni0429" horiz-adv-x="1082" unicode="Щ"/>
<glyph d="M459 429q174 0 220 -125q15 -40 15 -89q0 -138 -110 -190q-54 -25 -128 -25h-290v592h-135v108h198h51v-271h179zM452 108q112 0 126 86q2 11 2 22q-2 106 -125 107h-175v-215h172z" glyph-name="uni042A" horiz-adv-x="746" unicode="Ъ"/>
<glyph d="M374 429q172 0 220 -121q16 -42 16 -93q0 -136 -109 -189q-55 -26 -130 -26h-289v700h113v-271h179zM699 700h113v-700h-113v700zM367 108q112 0 126 86q2 11 2 22q-2 106 -125 107h-175v-215h172z" glyph-name="uni042B" horiz-adv-x="878" unicode="Ы"/>
<glyph d="M374 429q172 0 220 -121q16 -42 16 -93q0 -136 -109 -189q-55 -26 -130 -26h-289v700h113v-271h179zM367 108q112 0 126 86q2 11 2 22q-2 106 -125 107h-175v-215h172z" glyph-name="uni042C" horiz-adv-x="661" unicode="Ь"/>
<glyph d="M378 712q159 0 261 -108q96 -102 96 -254q0 -159 -104 -262q-101 -100 -252 -100q-154 0 -255 100q-59 61 -83 143h121q37 -91 135 -122q39 -13 82 -13q120 0 189 90q37 49 48 113h-295v108h294q-21 113 -113 166q-55 31 -123 31q-116 0 -183 -79q-21 -26 -34 -56h-121 q36 129 152 196q83 47 185 47z" glyph-name="uni042D" horiz-adv-x="789" unicode="Э"/>
<glyph d="M670 712q153 0 257 -102q105 -107 106 -260q0 -154 -104 -258q-106 -103 -259 -104q-153 0 -257 102q-85 85 -102 205h-116v-295h-113v700h113v-297h115q20 144 131 231q99 78 229 78zM670 96q116 0 188 84q60 71 60 170q0 120 -84 194q-69 60 -164 60q-116 0 -188 -84 q-60 -71 -61 -170q1 -120 85 -194q69 -60 164 -60z" glyph-name="uni042E" horiz-adv-x="1084" unicode="Ю"/>
<glyph d="M302 700h289v-700h-113v253h-117l-191 -253h-139l201 261q-120 28 -156 135q-12 38 -12 81q0 133 100 190q57 33 138 33zM314 356h164v236h-164q-108 0 -131 -79q-5 -19 -5 -39q0 -87 80 -111q26 -7 56 -7z" glyph-name="uni042F" unicode="Я"/>
<glyph d="M494 550h113v-550h-113v92q-73 -100 -192 -104q-120 0 -193 93q-61 80 -61 194q0 140 88 222q69 65 165 65q120 0 188 -98q3 -5 5 -8v94zM326 96q88 0 136 68q33 48 33 111q0 96 -69 147q-44 32 -100 32q-88 0 -134 -71q-30 -47 -30 -108q0 -100 69 -150q42 -29 95 -29z " glyph-name="uni0430" unicode="а"/>
<glyph d="M365 537q118 0 189 -86q60 -73 60 -179q0 -139 -96 -220q-77 -64 -183 -64q-141 0 -220 103q-66 89 -67 233q0 276 137 378q101 75 320 80h40v-107q-196 0 -275 -44q-90 -50 -105 -189l-2 -20q46 88 150 110q26 5 52 5zM330 86q88 0 137 68q34 47 34 112q0 98 -71 146 q-41 28 -94 28q-85 0 -136 -63q-38 -47 -38 -111q0 -102 73 -152q42 -28 95 -28z" glyph-name="uni0431" horiz-adv-x="661" unicode="б"/>
<glyph d="M441 295q96 -28 102 -125v-12q0 -115 -112 -147q-38 -11 -85 -11h-280v550h256q193 -2 194 -139q0 -70 -72 -114q-2 -1 -3 -2zM402 390q0 58 -56 68q-15 3 -33 3h-134v-138h132q90 1 91 67zM339 89q85 0 90 68v10q-2 73 -91 74h-159v-152h160z" glyph-name="uni0432" horiz-adv-x="582" unicode="в"/>
<glyph d="M432 550v-106h-253v-444h-113v550h366z" glyph-name="uni0433" horiz-adv-x="456" unicode="г"/>
<glyph d="M616 106h100v-249h-113v143h-466v-143h-113v249h96q35 28 54 139l49 305h393v-444zM243 106h260v338h-184l-33 -204q-15 -92 -43 -134z" glyph-name="uni0434" horiz-adv-x="740" unicode="д"/>
<glyph d="M332 562q139 0 218 -101q67 -89 60 -217h-447q9 -102 92 -140q36 -17 80 -17q98 0 141 70q3 7 6 12h117q-44 -126 -167 -166q-47 -15 -98 -15q-136 0 -218 94q-68 79 -68 192q0 135 92 218q79 70 192 70zM332 464q-96 0 -143 -79q-13 -23 -20 -49h320q-19 85 -92 116 q-31 12 -65 12z" glyph-name="uni0435" horiz-adv-x="654" unicode="е"/>
<glyph d="M947 0h-145l-260 254v-254h-113v254l-260 -254h-145l290 289l-269 261h146l238 -239v239h113v-239l238 239h146l-269 -261z" glyph-name="uni0436" horiz-adv-x="971" unicode="ж"/>
<glyph d="M448 291q78 -29 88 -113q1 -12 1 -22q0 -101 -102 -144q-57 -24 -135 -24q-232 1 -268 193h114q18 -87 104 -101q22 -4 47 -4q121 6 126 88q-2 75 -97 76h-102v87h82q99 1 100 68q0 70 -88 79q-14 2 -29 2q-108 -1 -128 -82h-115q28 137 176 162q33 6 69 6q145 0 202 -76 q27 -37 27 -83q-1 -77 -72 -112z" glyph-name="uni0437" horiz-adv-x="576" unicode="з"/>
<glyph d="M444 550h133v-550h-113v230l7 174l-272 -404h-133v550h113v-230l-7 -173z" glyph-name="uni0438" horiz-adv-x="642" unicode="и"/>
<glyph d="M322 633q-86 0 -133 60q-31 41 -31 95v23h90v-19q0 -55 47 -69q13 -4 27 -4q54 0 69 46q4 13 4 27v19h90v-23q0 -88 -72 -131q-41 -24 -91 -24zM444 550h133v-550h-113v230l7 174l-272 -404h-133v550h113v-230l-7 -173z" glyph-name="uni0439" horiz-adv-x="642" unicode="й"/>
<glyph d="M584 0h-146l-259 254v-254h-113v550h113v-238l238 238h145l-269 -261z" glyph-name="uni043A" horiz-adv-x="608" unicode="к"/>
<glyph d="M202 550h391v-550h-113v444h-182l-36 -230q-32 -192 -136 -220q-22 -6 -46 -6q-21 0 -56 6v102l33 -3q49 0 70 44q13 29 23 87z" glyph-name="uni043B" horiz-adv-x="658" unicode="л"/>
<glyph d="M524 550h133v-550h-113v230l8 191l-189 -269h-3l-189 269l8 -191v-230h-113v550h133l162 -226z" glyph-name="uni043C" horiz-adv-x="723" unicode="м"/>
<glyph d="M471 550h113v-550h-113v227h-292v-227h-113v550h113v-216h292v216z" glyph-name="uni043D" horiz-adv-x="649" unicode="н"/>
<glyph d="M333 562q125 0 208 -87q77 -82 77 -200q0 -131 -92 -214q-81 -73 -193 -73q-125 0 -208 88q-77 82 -77 199q0 130 92 214q81 73 193 73zM333 454q-86 0 -136 -67q-35 -48 -35 -112q0 -96 70 -147q45 -32 101 -32q87 0 136 67q35 48 35 112q0 95 -69 146q-45 33 -102 33z " glyph-name="uni043E" horiz-adv-x="665" unicode="о"/>
<glyph d="M576 550v-550h-113v444h-284v-444h-113v550h113h397z" glyph-name="uni043F" horiz-adv-x="641" unicode="п"/>
<glyph d="M377 562q117 0 189 -91q64 -80 64 -196q0 -141 -88 -223q-70 -64 -166 -64q-119 0 -187 96q-3 5 -5 8v-342h-113v800h113v-94q63 100 180 106h13zM352 96q88 0 134 71q30 46 30 108q0 99 -69 149q-42 30 -95 30q-87 0 -136 -69q-33 -47 -33 -110q0 -97 70 -148 q44 -31 99 -31z" glyph-name="uni0440" horiz-adv-x="678" unicode="р"/>
<glyph d="M333 -12q-130 0 -212 91q-73 81 -73 196q0 131 91 214q81 73 195 73q123 0 203 -81q52 -55 67 -131h-117q-23 76 -100 99q-26 8 -53 8q-94 0 -142 -74q-30 -47 -30 -108q0 -99 70 -150q44 -32 101 -32q87 0 132 64q15 20 22 44h117q-23 -121 -129 -178q-65 -35 -142 -35z " glyph-name="uni0441" horiz-adv-x="642" unicode="с"/>
<glyph d="M496 550v-106h-179v-444h-113v444h-180v106h293h179z" glyph-name="uni0442" horiz-adv-x="520" unicode="т"/>
<glyph d="M460 550h121l-364 -800h-121l145 320l-217 480h121l156 -358z" glyph-name="uni0443" horiz-adv-x="605" unicode="у"/>
<glyph d="M800 562q117 0 190 -91q64 -80 64 -196q0 -140 -88 -222q-69 -65 -166 -65q-123 1 -193 103v-329h-113v329q-69 -102 -192 -103q-120 0 -193 93q-61 80 -61 194q0 140 88 222q69 65 165 65q118 0 185 -94q5 -7 8 -12v314h113v-314q72 104 193 106zM326 96q88 0 136 68 q33 48 33 111q0 96 -69 147q-44 32 -100 32q-88 0 -134 -71q-30 -47 -30 -108q0 -100 69 -150q42 -29 95 -29zM776 96q88 0 134 71q30 46 30 108q0 99 -69 149q-42 30 -95 30q-87 0 -136 -69q-33 -47 -33 -110q0 -97 70 -148q44 -31 99 -31z" glyph-name="uni0444" horiz-adv-x="1102" unicode="ф"/>
<glyph d="M556 0h-135l-133 197l-128 -197h-136l197 283l-186 267h135l122 -184l118 184h136l-186 -269z" glyph-name="uni0445" horiz-adv-x="580" unicode="х"/>
<glyph d="M562 106h100v-249h-113v143h-370h-113v550h113v-444h270v444h113v-444z" glyph-name="uni0446" horiz-adv-x="686" unicode="ц"/>
<glyph d="M413 550h113v-550h-113v188q-65 -27 -145 -27q-196 0 -215 166q-2 17 -2 35v188h113v-161q0 -90 52 -114q28 -13 74 -13q76 0 123 27v261z" glyph-name="uni0447" horiz-adv-x="592" unicode="ч"/>
<glyph d="M692 550h113v-550h-113h-313h-257h-56v550h113v-444h200v444h113v-444h200v444z" glyph-name="uni0448" horiz-adv-x="871" unicode="ш"/>
<glyph d="M805 106h100v-249h-113v143h-300h-313h-113v550h113v-444h200v444h113v-444h200v444h113v-444z" glyph-name="uni0449" horiz-adv-x="929" unicode="щ"/>
<glyph d="M420 378q148 0 186 -110q11 -33 11 -75q0 -130 -104 -175q-43 -18 -97 -18h-267l-1 443h-124v107h237v-172h159zM413 108q89 2 90 85q0 75 -68 84q-10 1 -21 1h-153l1 -170h151z" glyph-name="uni044A" horiz-adv-x="665" unicode="ъ"/>
<glyph d="M337 378q148 0 186 -110q11 -33 11 -75q0 -130 -104 -175q-43 -18 -97 -18h-267v550h113v-172h158zM615 550h113v-550h-113v550zM329 108q90 2 91 85q0 75 -68 84q-10 1 -21 1h-152v-170h150z" glyph-name="uni044B" horiz-adv-x="793" unicode="ы"/>
<glyph d="M338 378q148 0 186 -110q11 -33 11 -75q0 -130 -104 -175q-43 -18 -97 -18h-268v550h113v-172h159zM331 108q89 2 90 85q0 75 -68 84q-10 1 -21 1h-153v-170h152z" glyph-name="uni044C" horiz-adv-x="583" unicode="ь"/>
<glyph d="M311 562q132 0 214 -92q71 -81 71 -195q0 -132 -90 -215q-80 -72 -194 -72q-126 0 -206 80q-53 55 -68 133h117q21 -75 96 -101q30 -10 61 -10q93 0 140 74q19 31 26 69h-203v89h202q-17 89 -93 123q-34 15 -73 15q-88 0 -133 -62q-16 -22 -23 -48h-117q21 116 125 175 q67 37 148 37z" glyph-name="uni044D" horiz-adv-x="644" unicode="э"/>
<glyph d="M566 562q125 0 208 -88q77 -82 77 -199q0 -131 -92 -214q-81 -73 -193 -73q-126 0 -209 89q-56 61 -71 144h-107v-221h-113v550h113v-222h107q21 119 119 185q72 49 161 49zM566 96q87 0 136 67q35 48 35 112q0 94 -69 146q-45 33 -102 33q-86 0 -136 -67 q-35 -48 -35 -112q0 -95 69 -146q45 -33 102 -33z" glyph-name="uni044E" horiz-adv-x="899" unicode="ю"/>
<glyph d="M252 550h276v-550h-113v199h-109l-143 -199h-139l161 207q-129 39 -133 159q0 127 107 168q42 16 93 16zM261 292h154v156h-157q-91 -1 -92 -80q0 -71 83 -76h12z" glyph-name="uni044F" horiz-adv-x="594" unicode="я"/>
<glyph d="M213 664q-44 0 -61 37q-6 14 -6 28q0 41 37 58q15 6 30 6q46 0 62 -38q5 -13 5 -26q0 -43 -38 -59q-14 -6 -29 -6zM440 664q-45 0 -62 37q-6 14 -6 28q0 42 38 58q14 6 30 6q45 0 62 -37q6 -13 6 -27q0 -44 -39 -60q-14 -5 -29 -5zM332 562q139 0 218 -101 q67 -89 60 -217h-447q9 -102 92 -140q36 -17 80 -17q98 0 141 70q3 7 6 12h117q-44 -126 -167 -166q-47 -15 -98 -15q-136 0 -218 94q-68 79 -68 192q0 135 92 218q79 70 192 70zM332 464q-96 0 -143 -79q-13 -23 -20 -49h320q-19 85 -92 116q-31 12 -65 12z" glyph-name="uni0451" horiz-adv-x="654" unicode="ё"/>
<glyph d="M333 90q88 0 133 66q14 21 21 45h117q-23 -121 -129 -178q-65 -35 -142 -35q-130 0 -212 91q-73 81 -73 196q0 131 91 214q81 73 195 73q123 0 203 -81q52 -55 67 -131h-117q-23 79 -101 103q-25 7 -52 7q-95 0 -142 -75q-18 -29 -25 -63h202v-89h-203q17 -91 92 -127 q35 -16 75 -16z" glyph-name="uni0454" horiz-adv-x="642" unicode="є"/>
<glyph d="M122 798q49 0 68 -39q6 -15 6 -30q0 -46 -41 -64q-16 -7 -33 -7q-46 0 -66 39q-7 15 -7 32q0 44 40 62q16 7 33 7zM66 0v550h113v-550h-113z" glyph-name="uni0456" horiz-adv-x="244" unicode="і"/>
<glyph d="M8 793q46 0 62 -38q5 -13 5 -26q0 -43 -38 -59q-14 -6 -29 -6q-44 0 -61 37q-6 14 -6 28q0 41 37 58q14 6 30 6zM235 793q45 0 62 -37q6 -13 6 -27q0 -44 -39 -60q-14 -5 -29 -5q-45 0 -62 37q-6 14 -6 28q0 42 38 58q14 6 30 6zM66 0v550h113v-550h-113z" glyph-name="uni0457" horiz-adv-x="244" unicode="ї"/>
<glyph d="M303 633q-86 0 -133 60q-31 41 -31 95v23h90v-19q0 -55 47 -69q13 -4 27 -4q54 0 69 46q4 13 4 27v19h90v-23q0 -88 -72 -131q-41 -24 -91 -24zM460 550h121l-364 -800h-121l145 320l-217 480h121l156 -358z" glyph-name="uni045E" horiz-adv-x="605" unicode="ў"/>
<glyph d="M514 770v-178h-319v-592h-113v700h319v70h113z" glyph-name="uni0490" horiz-adv-x="545" unicode="Ґ"/>
<glyph d="M432 624v-180h-253v-444h-113v550h253v74h113z" glyph-name="uni0491" horiz-adv-x="456" unicode="ґ"/>
</font>
</defs>
</svg>
